<?xml version="1.0" encoding="UTF-8"?>
<svg width="400" height="300" version="1.1" viewBox="0 0 105.83 79.375" xmlns="http://www.w3.org/2000/svg" xmlns:cc="http://creativecommons.org/ns#" xmlns:dc="http://purl.org/dc/elements/1.1/" xmlns:rdf="http://www.w3.org/1999/02/22-rdf-syntax-ns#" xmlns:xlink="http://www.w3.org/1999/xlink">
<defs>
<linearGradient id="a">
<stop stop-opacity=".14113" offset="0"/>
<stop stop-opacity=".028226" offset=".50168"/>
<stop stop-color="#fff" stop-opacity=".29435" offset=".53353"/>
<stop stop-color="#fff" stop-opacity="0" offset="1"/>
</linearGradient>
<linearGradient id="d" x1="106.37" x2="0" y1="24.72" y2="48.104" gradientUnits="userSpaceOnUse">
<stop stop-color="#023a3c" offset="0"/>
<stop stop-color="#03575b" offset=".21466"/>
<stop stop-color="#06674e" offset=".45457"/>
<stop stop-color="#387026" offset=".73489"/>
<stop stop-color="#546321" stop-opacity=".91765" offset="1"/>
</linearGradient>
<linearGradient id="c" x1="1.0102" x2="16.92" y2="-3.5355" gradientTransform="scale(.26458)" gradientUnits="userSpaceOnUse" xlink:href="#a"/>
<linearGradient id="b" x1="1.0102" x2="16.92" y2="-3.5355" gradientTransform="matrix(.26458 0 0 .26458 9.3544 0)" gradientUnits="userSpaceOnUse" xlink:href="#a"/>
<linearGradient id="j" x1="1.0102" x2="16.92" y2="-3.5355" gradientTransform="matrix(.26458 0 0 .26458 37.685 0)" gradientUnits="userSpaceOnUse" xlink:href="#a"/>
<linearGradient id="i" x1="1.0102" x2="16.92" y2="-3.5355" gradientTransform="matrix(.26458 0 0 .26458 28.331 0)" gradientUnits="userSpaceOnUse" xlink:href="#a"/>
<linearGradient id="h" x1="1.0102" x2="16.92" y2="-3.5355" gradientTransform="translate(346.48)" gradientUnits="userSpaceOnUse" xlink:href="#a"/>
<linearGradient id="g" x1="1.0102" x2="16.92" y2="-3.5355" gradientTransform="matrix(.26458 0 0 .26458 82.319 0)" gradientUnits="userSpaceOnUse" xlink:href="#a"/>
<linearGradient id="f" x1="1.0102" x2="16.92" y2="-3.5355" gradientTransform="matrix(.26458 0 0 .26458 63.343 0)" gradientUnits="userSpaceOnUse" xlink:href="#a"/>
<linearGradient id="e" x1="1.0102" x2="16.92" y2="-3.5355" gradientTransform="matrix(.26458 0 0 .26458 53.988 0)" gradientUnits="userSpaceOnUse" xlink:href="#a"/>
</defs>
<metadata>
<rdf:RDF>
<cc:Work rdf:about="">
<dc:format>image/svg+xml</dc:format>
<dc:type rdf:resource="http://purl.org/dc/dcmitype/StillImage"/>
<dc:title/>
</cc:Work>
</rdf:RDF>
</metadata>
<g>
<rect y="-2.5e-7" width="105.83" height="79.375" fill="url(#d)" fill-rule="evenodd" stroke-width=".26458"/>
</g>
<g fill-rule="evenodd">
<path d="m0.35708 0 16.896 79.375h5.1082l-16.897-79.375z" fill="url(#c)" opacity=".21222" style="mix-blend-mode:normal"/>
<path d="m9.7115 0 16.896 79.375h5.1082l-16.897-79.375z" fill="url(#b)" opacity=".21222" style="mix-blend-mode:normal"/>
<path d="m28.688 0 16.896 79.375h5.1082l-16.897-79.375z" fill="url(#i)" opacity=".21222" style="mix-blend-mode:normal"/>
<path d="m38.042 0 16.896 79.375h5.1082l-16.897-79.375z" fill="url(#j)" opacity=".21222" style="mix-blend-mode:normal"/>
<path d="m54.346 0 16.896 79.375h5.1082l-16.897-79.375z" fill="url(#e)" opacity=".21222" style="mix-blend-mode:normal"/>
<path d="m63.7 0 16.896 79.375h5.1082l-16.897-79.375z" fill="url(#f)" opacity=".21222" style="mix-blend-mode:normal"/>
<path d="m82.676 0 16.896 79.375h5.1082l-16.897-79.375z" fill="url(#g)" opacity=".21222" style="mix-blend-mode:normal"/>
<path transform="scale(.26458)" d="m347.83 0 52.168 245.08v-90.695l-32.863-154.38h-19.305z" fill="url(#h)" opacity=".21222" style="mix-blend-mode:normal"/>
</g>
</svg>
