<?xml version="1.0" encoding="UTF-8"?>
<svg width="400" height="100" version="1.1" viewBox="0 0 105.83 26.458" xmlns="http://www.w3.org/2000/svg" xmlns:cc="http://creativecommons.org/ns#" xmlns:dc="http://purl.org/dc/elements/1.1/" xmlns:rdf="http://www.w3.org/1999/02/22-rdf-syntax-ns#" xmlns:xlink="http://www.w3.org/1999/xlink">
<defs>
<linearGradient id="a" x1="34.286" x2="520" y1="219.66" y2="125.38" gradientTransform="matrix(.18213 0 0 .18213 -3.2966 253.93)" gradientUnits="userSpaceOnUse">
<stop stop-color="#03575a" offset="0"/>
<stop stop-color="#078b91" offset=".25421"/>
<stop stop-color="#5ff2ca" offset=".50905"/>
<stop stop-color="#54a838" offset=".75649"/>
<stop stop-color="#7e9532" offset="1"/>
</linearGradient>
</defs>
<metadata>
<rdf:RDF>
<cc:Work rdf:about="">
<dc:format>image/svg+xml</dc:format>
<dc:type rdf:resource="http://purl.org/dc/dcmitype/StillImage"/>
<dc:title/>
</cc:Work>
</rdf:RDF>
</metadata>
<g transform="translate(0 -270.54)" display="none">
<image x="3.3836" y="4.5674" width="152.74" height="64.77" preserveAspectRatio="none" xlink:href="file:///C:/Users/cynth/Desktop/name.png"/>
</g>
<g transform="translate(0 -270.54)">
<path d="m10.105 272.88c-0.18791-2e-3 -0.38559 8e-3 -0.59156 0.0327-1.6477 0.19335-3.8636 1.2361-6.0956 3.2712-4.5083 4.1105-3.1501 11.163 1.3378 13.485 1.8463 0.95501 3.7642 1.7691 5.594 2.394 0.50573 1.2234 1.6164 2.1922 2.9795 2.7981 1.9047 0.84652 4.3138 1.012 6.3428 0.20987 2.7515-1.0878 5.5226-2.6122 7.8048-3.8908 2.93 2.2732 5.9193 4.3636 8.873 4.3625 2.4433-7e-4 5.2958-1.0062 7.8162-2.1852 1.6359 1.2065 2.75 2.0575 2.75 2.0575 0.03002 0.0233 0.06692 0.0361 0.10494 0.0362h25.85c0.0302-3.7e-4 0.05976-9e-3 0.08573-0.0241l7.0464-4.0683h10.431c0.0996 0.41896 0.47697 0.73278 0.92558 0.73278 0.52408 0 0.95296-0.42782 0.95296-0.95189 0-0.52409-0.42888-0.95297-0.95296-0.95297-0.48161 0-0.88092 0.36267-0.94265 0.82811h-10.461c-0.03032 3.1e-4 -0.06001 9e-3 -0.08608 0.0241l-7.0464 4.0683h-25.746c-0.02446-0.0187-1.0438-0.7978-2.559-1.9173 0.41929-0.20115 0.82918-0.40557 1.224-0.6104 0.34234-0.1776 0.62118-0.32779 0.87257-0.46671 0.98119 0.95514 1.6093 1.6189 1.6093 1.6189 0.03251 0.0345 0.07781 0.0541 0.12521 0.0541h23.287c0.03022-1e-5 0.05991-8e-3 0.08608-0.0231l15.692-9.0601c0.0075-4e-3 0.01462-9e-3 0.02134-0.015 0.16626 0.14055 0.3783 0.22873 0.61184 0.22873 0.52409 0 0.95296-0.42782 0.95296-0.9519 0-0.52409-0.42888-0.95331-0.95296-0.95331-0.52409 0-0.95332 0.42922-0.95332 0.95331 0 0.16553 0.04654 0.31908 0.12165 0.45495l-15.626 9.0221h-23.171c-0.02562-0.0271-0.59242-0.62734-1.4901-1.5047 0.78704-0.44961 1.1749-0.73321 1.8035-1.1372 0.36569 0.34546 0.73409 0.72245 1.0743 0.86581 0.02084 9e-3 0.0432 0.0133 0.0658 0.0134h21.802c0.0302 8e-5 0.05988-8e-3 0.08608-0.0228l7.7848-4.4934c0.14568 0.0907 0.31588 0.14549 0.49943 0.14549 0.52408 0 0.95332-0.42781 0.95332-0.9519 0-0.52408-0.42924-0.95332-0.95332-0.95332-0.52409 0-0.9519 0.42924-0.9519 0.95332 0 0.21046 0.07131 0.40339 0.18782 0.56132l-7.6522 4.4169h-21.704c-0.245-0.10639-0.57354-0.44034-0.88218-0.71927 0.41079-0.26801 1.5991-0.94966 1.6135-0.95972h20.191c0.03008 2e-5 0.05964-8e-3 0.08573-0.0228l3.0346-1.7522c0.15478 0.10866 0.34228 0.17359 0.5446 0.17359 0.52408 0 0.9519-0.42888 0.9519-0.95297 0-0.52408-0.42781-0.95332-0.9519-0.95332s-0.95331 0.42924-0.95331 0.95332c0 0.19392 0.05914 0.3744 0.15971 0.5254l-2.9172 1.6847h-20.191c-0.03561-2.2e-4 -0.07041 0.0106-0.0996 0.031 0 0-1.2818 0.73833-1.7515 1.0433-0.08382-0.0835-0.14242-0.0954-0.22873-0.18674-0.24332-0.25758-0.4978-0.54643-0.75981-0.84945 1.0606-0.55111 2.1364-1.1255 3.2484-1.717h16.105c0.03689 0.49096 0.44836 0.88183 0.94834 0.88183 0.52409 0 0.95296-0.42924 0.95296-0.95332 0-0.5241-0.42887-0.95191-0.95296-0.95191-0.42927 0-0.79381 0.28722-0.9117 0.67907h-16.183c-0.02817 6e-5 -0.0559 7e-3 -0.08075 0.0203-1.1518 0.61253-2.2634 1.2065-3.3565 1.7733-0.2397-0.28004-0.48194-0.56512-0.73313-0.85764-1.6487-1.8082-4.5886-3.8349-6.8781-3.3142-0.43079 0.11117-0.88159 0.25067-1.3435 0.41049-1.0599-0.56197-2.058-0.91988-2.9183-0.91988-0.76235 0-1.7153 0.37584-2.8215 0.95617-0.35262-0.18785-0.68565-0.35542-0.98996-0.49374-0.65366-0.29712-1.1766-0.47626-1.5744-0.47594-1.576 9.8e-4 -3.149 1.0049-4.7506 2.2254-1.6243-1.1964-3.3457-2.0816-5.4094-2.0816-0.94824 0-1.8201 0.10976-2.6287 0.29382-1.0457-0.20838-1.9635-0.2692-2.7596-0.19956-1.1411 0.0998-2.0385 0.46095-2.7294 1.0138-0.94104 0.75304-1.4813 1.8439-1.7455 3.0677-0.77433 0.51257-1.4696 0.88597-2.125 0.964-1.3385 0.15934-2.3342-0.0481-2.9941-0.29169-0.65986-0.24358-0.97217-0.51372-0.97217-0.51372-0.033147-0.0328-0.078208-0.0508-0.12486-0.0498-3.549-2.6193-4.4165-8.7068-0.39129-12.377 2.1911-1.9978 4.3654-3.003 5.9049-3.1837 0.76976-0.0904 1.3731 0.0282 1.7451 0.29737 0.37203 0.26918 0.54519 0.68265 0.45425 1.3041-0.16862 1.1522-0.62456 1.628-1.0743 1.8366 0.07214-0.13399 0.11703-0.28444 0.11703-0.44644 0-0.52408-0.42923-0.95188-0.95332-0.95188-0.52409 0-0.95296 0.4278-0.95296 0.95188 0 0.35404 0.19799 0.66091 0.48662 0.82527 0.024234 0.0279 0.056781 0.0472 0.092834 0.0551 0 0 0.022782 5e-3 0.028818 7e-3 0.10718 0.0419 0.22312 0.0662 0.34469 0.0662 0.04722 0 0.093295-5e-3 0.13873-0.0114 0.18899-1e-4 0.4137-0.024 0.64776-0.10315 0.60877-0.20591 1.264-0.80189 1.4656-2.1791 0.1042-0.71201-0.12084-1.2912-0.5944-1.6338-0.35517-0.25698-0.83175-0.38458-1.3955-0.39163zm-0.26216 2.7579c0.33808 0 0.60899 0.26985 0.60899 0.60792 0 0.33808-0.27091 0.60899-0.60899 0.60899-0.33808 0-0.60899-0.27091-0.60899-0.60899 0-0.33807 0.27091-0.60792 0.60899-0.60792zm78.205 7.7173c0.33808 0 0.60899 0.2709 0.60899 0.60898s-0.27091 0.60758-0.60899 0.60758c-0.33808 0-0.60899-0.2695-0.60899-0.60758s0.27091-0.60898 0.60899-0.60898zm-57.768 1.3752c0.28514-2e-4 0.79636 0.15617 1.4318 0.44499 0.23603 0.10728 0.49552 0.23734 0.76515 0.37741-0.10574 0.0578-0.21039 0.11438-0.31872 0.17537-1.3143 0.73995-2.8177 1.7135-4.3931 2.7042-0.64635-0.55571-1.2908-1.104-1.9483-1.6057 1.5582-1.1782 3.0595-2.0952 4.4632-2.0962zm5.3859 0.0134c0.69222 0 1.5459 0.27819 2.4712 0.73598-0.65424 0.24078-1.3249 0.51687-1.9899 0.81031-0.32206 0.14211-0.64262 0.28793-0.95901 0.43575-0.35993-0.22429-0.71333-0.44111-1.0522-0.6417-0.32151-0.19033-0.62789-0.36392-0.92522-0.52824 1.0012-0.50422 1.8514-0.8121 2.4552-0.8121zm-15.546 0.13054c1.9291 0 3.5604 0.8176 5.1244 1.9561-0.46339 0.35917-0.9293 0.73133-1.398 1.1042-1.6769-1.2394-3.3251-2.2828-4.9245-2.7564-0.20249-0.06-0.40048-0.11442-0.59476-0.16469 0.56581-0.0881 1.1612-0.13909 1.7928-0.13909zm-4.5788 0.0658c0.36006 7e-3 0.74402 0.0387 1.1518 0.0953-1.5585 0.47246-2.8638 1.2157-3.9943 1.971-0.73684 0.49229-1.4015 0.98287-2.0166 1.4097 0.27486-1.0118 0.76298-1.8912 1.5353-2.5092 0.63458-0.50779 1.4685-0.84909 2.553-0.94264 0.13555-0.0118 0.27521-0.0193 0.41868-0.0231 0.11467-3e-3 0.23214-3e-3 0.35216-9.8e-4zm31.004 3.5077c0.23225 0.27044 0.45655 0.53423 0.68048 0.79608-0.69358 0.35713-1.3794 0.70051-2.0621 1.0287-0.4671-0.42569-0.95872-0.86471-1.4823-1.3112-1.3295-1.1338-2.7913-2.268-4.1878-3.1232-0.16669-0.10206-0.33211-0.19968-0.49658-0.29347 0.34918-0.11491 0.69034-0.21805 1.017-0.30235 2.6281-0.36118 5.4659 1.9779 6.5313 3.2054zm-29.053-3.2733c0.4211 0.0865 0.86312 0.19536 1.3325 0.33437 1.5051 0.44575 3.0977 1.4473 4.7374 2.6519-1.0877 0.85997-2.188 1.6907-3.2964 2.2741-1.7222 0.9064-2.9659 1.0059-3.7845 0.77973-0.81853-0.22618-1.2234-0.77971-1.3016-1.2098-0.03356-0.18455 0.0465-0.36754 0.22446-0.56095 0.17795-0.19344 0.44672-0.37922 0.72495-0.53501 0.22393-0.1254 0.43512-0.22077 0.62535-0.30129-0.01878 0.0744-0.02988 0.15161-0.02988 0.23157 0 0.52408 0.42924 0.95297 0.95332 0.95297 0.52409 0 0.95297-0.42889 0.95296-0.95297 0-0.52409-0.42888-0.95189-0.95296-0.95189-0.22973 0-0.43856 0.0855-0.60365 0.22197-0.18327 0.0648-0.64769 0.23898-1.1134 0.49978-0.2967 0.16615-0.59193 0.36481-0.81068 0.60259-0.21874 0.23775-0.36755 0.53235-0.30912 0.85371 0.10578 0.58178 0.61955 1.2248 1.5488 1.4816 0.92924 0.25676 2.2626 0.12516 4.036-0.8082 1.1697-0.61564 2.3096-1.4826 3.4238-2.3658 0.58711 0.43797 1.1829 0.90301 1.7797 1.372-2.8616 1.7-5.8312 3.1757-8.3145 3.3064-1.6718 0.088-4.0874-0.39245-6.7106-1.2735-0.14356-0.40059-0.21623-0.82818-0.20525-1.2784 0.01319-0.54057 0.06688-1.0686 0.16541-1.5719 0.71431-0.48273 1.4723-1.0641 2.326-1.6345 1.2844-0.85811 2.7718-1.6895 4.6019-2.1183zm21.063 0.52112c0.25022 0.13515 0.50316 0.27838 0.76017 0.43576 1.372 0.84007 2.8212 1.9657 4.1423 3.0922 0.48032 0.40961 0.93408 0.81435 1.3706 1.2105-0.85 0.40242-1.6965 0.77853-2.5476 1.1216-0.79426-0.57262-1.6371-1.1733-2.5067-1.7797-1.4181-0.9888-2.8811-1.9756-4.2355-2.8312 0.24818-0.11468 0.49685-0.22956 0.74807-0.34043 0.76202-0.33622 1.5307-0.64815 2.2688-0.90884zm-5.7124 0.0498c0.35293 0.1913 0.72566 0.40256 1.1177 0.6346 0.27789 0.1645 0.567 0.34096 0.86012 0.5222-2.0751 0.98808-3.9198 2.014-4.7118 2.4288-0.18754 0.0983-0.49592 0.26935-0.7808 0.42615-0.36648-0.30189-0.72831-0.60934-1.0878-0.9181-0.06707-0.0576-0.13368-0.11456-0.20062-0.17217 1.5437-0.97181 3.0135-1.9218 4.2874-2.6391 0.17545-0.0988 0.34746-0.19302 0.51579-0.28244zm47.202 9.8e-4c0.33808 0 0.60899 0.27091 0.60899 0.609 0 0.33808-0.27091 0.60756-0.60899 0.60756-0.33808 0-0.60756-0.26948-0.60756-0.60756 0-0.33809 0.26948-0.609 0.60756-0.609zm-5.5335 0.74488c0.33808 0 0.60757 0.27091 0.60757 0.60898 0 0.33808-0.26949 0.609-0.60757 0.609s-0.60934-0.27092-0.60934-0.609c0-0.33807 0.27126-0.60898 0.60934-0.60898zm-6.4399 0.461c0.33808 0 0.60899 0.26949 0.60899 0.60757s-0.2709 0.60899-0.60899 0.60899c-0.33808 0-0.60792-0.27091-0.60792-0.60899s0.26984-0.60757 0.60792-0.60757zm-42.542 0.091c0.64681 0.48853 1.2859 1.0275 1.9308 1.5808-0.0025 9.8e-4 -0.0049 3e-3 -0.0074 5e-3 -0.4949 0.30975-0.99789 0.61929-1.5043 0.92378-0.60748-0.47925-1.2144-0.95438-1.8156-1.4054 0.47001-0.37463 0.93574-0.7481 1.3965-1.1038zm9.6367 0.0741c1.3992 0.87756 2.9297 1.9082 4.4105 2.9407 0.80139 0.55876 1.5781 1.1121 2.321 1.6466-1.6067 0.62738-3.235 1.1361-4.9441 1.4737-2.9744-0.0673-5.2478-1.498-7.3395-3.1869 0.2324-0.12768 0.49934-0.27624 0.6538-0.35714 0.83022-0.43488 2.7573-1.5078 4.8982-2.5171zm-17.489 1.1134c0.33808 0 0.60899 0.26985 0.60899 0.60792 0 0.33809-0.27091 0.609-0.60899 0.609-0.33808 0-0.60899-0.27091-0.60899-0.609 0-0.33807 0.27091-0.60792 0.60899-0.60792zm10.056 0.62784c0.09379 0.0806 0.18642 0.15987 0.28066 0.24083 0.32495 0.27912 0.65339 0.55902 0.9864 0.83522-0.48428 0.26876-1.0133 0.56493-1.5011 0.83843-0.42216-0.32897-0.8407-0.65996-1.2607-0.99174 0.47027-0.28471 0.93689-0.57315 1.3965-0.86084 0.03384-0.0212 0.06441-0.0408 0.09817-0.0619zm-17.566 0.32946c-0.06584 0.42493-0.10306 0.86154-0.11383 1.303-0.0098 0.40198 0.04403 0.78527 0.14798 1.15-1.313-0.45786-2.6693-1.0142-4.0068-1.6477 0.55751 0.0826 1.2141 0.10818 1.9764 0.0174 0.65995-0.0785 1.3107-0.3909 1.9963-0.82276zm37.288 0.32477c0.28246 0.32736 0.55725 0.63917 0.82277 0.92024 0.05988 0.0634 0.10941 0.0756 0.16825 0.13589-0.64147 0.41007-1.0006 0.67597-1.7772 1.1169-0.37006-0.35812-0.77743-0.74516-1.2315-1.1636 0.66864-0.32342 1.3397-0.65961 2.0176-1.0095zm-21.536 0.4603c0.41646 0.32802 0.83099 0.65429 1.2503 0.98178-2.2675 1.2681-4.9651 2.7438-7.6244 3.7951-1.9265 0.76165-4.2559 0.60508-6.0767-0.20418-1.195-0.53111-2.16-1.3338-2.6718-2.331 2.525 0.82553 4.8499 1.2686 6.5342 1.1799 2.6375-0.13881 5.6814-1.6812 8.5884-3.4216zm3.3683 0.19671c2.1508 1.751 4.5311 3.2886 7.6749 3.354 0.01264 3.9e-4 0.02529-6.2e-4 0.03771-3e-3 1.815-0.35699 3.5368-0.9014 5.2326-1.5755 0.57654 0.41638 1.1127 0.8073 1.6153 1.1767-2.4575 1.1313-5.2046 2.0744-7.4989 2.0753-2.7496 9.8e-4 -5.6582-1.9797-8.5372-4.2042 0.47685-0.26769 0.99759-0.5587 1.4755-0.82384zm62.071 0.35998c0.33807 0 0.60899 0.27091 0.60899 0.60899 0 0.33807-0.27092 0.60791-0.60899 0.60791-0.33809 0-0.60792-0.26984-0.60792-0.60791 0-0.33808 0.26983-0.60899 0.60792-0.60899zm-46.257 0.15403c0.45654 0.419 0.87444 0.81305 1.2525 1.1774-0.22436 0.12317-0.46984 0.25542-0.77013 0.41121-0.44416 0.23042-0.90766 0.45998-1.3823 0.6844-0.49409-0.36386-1.0198-0.74904-1.5936-1.1643 0.83352-0.34137 1.6623-0.71262 2.4936-1.1088z" color="#000000" color-rendering="auto" dominant-baseline="auto" fill="url(#a)" fill-rule="evenodd" image-rendering="auto" shape-rendering="auto" solid-color="#000000" style="font-feature-settings:normal;font-variant-alternates:normal;font-variant-caps:normal;font-variant-ligatures:normal;font-variant-numeric:normal;font-variant-position:normal;isolation:auto;mix-blend-mode:normal;shape-padding:0;text-decoration-color:#000000;text-decoration-line:none;text-decoration-style:solid;text-indent:0;text-orientation:mixed;text-transform:none;white-space:normal"/>
</g>
<g transform="translate(0 -270.54)">
<g fill="#03575a" fill-opacity=".98889" stroke-width=".96413" aria-label="Cynthia Huffman">
<path d="m13.322 282.08q-0.03766 0.0979-0.32389 1.1148-0.81348 0.24103-1.4763 0.37661-0.66284 0.12805-1.4387 0.12805-0.934 0-1.868-0.33142-0.934-0.33142-1.6797-0.97919-0.74569-0.6553-1.1826-1.5893-0.43687-0.94153-0.43687-2.1392 0-1.642 0.80595-2.7719 0.81348-1.1298 2.0638-1.6646 1.2579-0.53479 2.5911-0.53479 1.047 0 2.0186 0.36908 0.45194 0.14311 0.6779 0.14311 0.10545-0.0226 0.15064-0.0301 0.05272-8e-3 0.12805-0.0151 0.04519 0 0.09792 0.0603l-0.11298 0.42933q-0.15818 0.56492-0.27869 1.4387-0.13558-0.0226-0.18077-0.0904-0.04519-0.0753-0.04519-0.2335-0.01506-0.47454-0.12805-0.64778-0.20337-0.33142-1.0169-0.6779t-1.6345-0.34648q-1.0846 0-1.9659 0.54232-0.87374 0.53479-1.3859 1.5742-0.50466 1.0394-0.50466 2.4404 0 1.288 0.4444 2.222 0.45193 0.92646 1.1223 1.4688 0.6779 0.54233 1.3709 0.78336 0.7005 0.24103 1.2127 0.24103 0.81348 0 1.3483-0.26363 0.53479-0.27116 0.83608-0.64024 0.30882-0.37661 0.59505-0.89634 0.11298-0.21843 0.19584-0.21843 0.14311 0 0.14311 0.13558 0 0.0979-0.14311 0.60258z"/>
<path d="m14.068 278.34v-0.2335q0.36908 0.0452 1.0319 0.0452 0.77582 0 1.5441-0.0904l-0.0226 0.27869q-0.30882 0.0603-0.4444 0.14312-0.13558 0.0753-0.13558 0.30129 0 0.36154 0.32389 1.5667 0.32389 1.2052 0.76829 2.3953l0.49713-0.88881q0.32389-0.55739 0.76829-1.5516 0.4444-0.99426 0.4444-1.3633 0-0.52725-1.047-0.6553l0.10545-0.24103q0.89634 0.0904 1.5592 0.0904 0.4896 0 0.74569-0.0452l-0.01506 0.24856q-0.20337 0.0301-0.36908 0.15818-0.15818 0.12052-0.30129 0.34648-0.13558 0.21844-0.30129 0.55739l-0.82101 1.6948q-0.01506 0.0377-0.57245 1.1148-0.80595 1.5818-1.2127 2.5158-0.39921 0.93399-0.58752 1.5516-0.18077 0.61764-0.42181 1.6345h-1.6044v-0.2561q0.49713-0.11298 0.79842-0.35402 0.30129-0.2335 0.54232-0.64777 0.24103-0.40674 0.60258-1.2353l0.58752-1.3106q-0.42934-1.6194-0.79089-2.8472-0.36155-1.2278-0.68543-1.996-0.15064-0.39168-0.30882-0.57998-0.15064-0.19584-0.28622-0.24104-0.12805-0.0527-0.39168-0.10545z"/>
<path d="m20.44 283.49-0.01506-0.21844q0.40674-0.0753 0.59505-0.15817 0.18831-0.0829 0.24856-0.18831 0.06026-0.10545 0.08286-0.28623 0.06026-0.41427 0.08285-1.0168 0.0226-0.60258 0.0226-1.2202 0-0.85868-0.06026-1.1675-0.05273-0.31635-0.24103-0.39921-0.18077-0.0904-0.68543-0.14311 0-0.0979-0.01506-0.14311 0.32389-0.0829 0.85868-0.31636 0.54232-0.24103 0.57245-0.27116 0.28622-0.15064 0.33895-0.15064 0.11298 0 0.14311 0.21843 0.03013 0.21844 0.03013 0.7231 0.82855-0.467 1.3633-0.66284 0.53479-0.20337 1.0244-0.20337 0.73063 0 1.062 0.32388 0.33895 0.31636 0.41427 0.77583 0.08285 0.45193 0.08285 1.1976v1.7927q0 1.062 0.09792 1.16 0.05272 0.0527 0.38414 0.12805 0.33142 0.0753 0.38414 0.0979l0.01506 0.2335q-0.56492-0.0904-1.3106-0.0904-0.63271 0-1.514 0.0904v-0.21844q0.68543-0.13558 0.85114-0.42933 0.11298-0.24857 0.15064-1.047 0.04519-0.80595 0.04519-1.2504 0-0.66284-0.06026-1.0846-0.05273-0.42934-0.30882-0.73063-0.2561-0.30129-0.79842-0.30129-0.24103 0-0.73063 0.0979t-1.1524 0.4444l-0.04519 2.0036q-0.01506 1.2805 0.03013 1.6948 0.01506 0.18078 0.06779 0.27117 0.06026 0.0904 0.2561 0.1657 0.19584 0.0678 0.66284 0.12052l-0.01506 0.2335q-0.16571-0.0151-0.47453-0.0377t-0.79088-0.0377z"/>
<path d="m28.485 281.44 0.03766-2.93q-0.34648-0.0452-0.80595-0.0452 0.01506-0.0603 0.01506-0.18831 0.65531-0.39921 1.0244-0.76075 0.36908-0.36155 0.87374-1.0244l-0.07532 1.3558q0.64777 0.0603 1.4161 0.0603 0.36908 0 0.80595-0.0151l-0.01506 0.467q-0.39168 0.0452-0.80595 0.0452-0.03766 0-0.29376-8e-3 -0.2561-0.0151-0.79842-0.0377-0.14311 0-0.21844 0.0301-0.06779 0.0226-0.09792 0.0979-0.0226 0.0753-0.03766 0.28622-0.0075 0.2109-0.01506 0.4444l-0.03766 2.3501q-0.01506 0.67791 0.15064 1.1223 0.17324 0.43687 0.82102 0.43687 0.24856 0 0.61011-0.10545 0.36908-0.11299 0.84361-0.33142 0.01506 0.0603 0.01506 0.0904 0.0075 0.0301 0.01506 0.0678-0.26363 0.28623-0.97166 0.56492-0.7005 0.2787-1.2654 0.2787-0.4896 0-0.84361-0.33142-0.34648-0.33895-0.34648-1.16z"/>
<path d="m32.191 274.43v-0.28623q0.16571-0.0829 0.21844-0.11298l1.4613-0.70803 0.24856-0.13558 0.24856 0.12051q-0.14311 0.67791-0.20337 1.5667-0.06026 0.88127-0.09039 2.2446l-0.04519 1.529q0.8888-0.38414 1.4387-0.56491 0.55739-0.18078 1.0696-0.18078 0.7231 0 1.0545 0.44441 0.33142 0.43687 0.40674 1.0771 0.08286 0.6327 0.08286 1.6722 0 0.20337-0.0075 0.37662 0 0.17324-0.0075 0.48959-0.0075 0.30882-0.0226 0.57245-0.0075 0.2561-0.0075 0.29376 0 0.32389 0.15818 0.42934t0.87374 0.10545l-0.01506 0.2335h-0.4896q-0.11298 0-0.934 8e-3 -0.81348 8e-3 -0.83608 8e-3 -0.0226 0-0.33142 0.0753-0.07532 0-0.07532-0.10546 0-0.0753 0.12052-0.10545 0.28622-0.0678 0.4218-0.24103 0.14311-0.17324 0.18831-0.58751 0.05273-0.41428 0.05273-1.3633 0-1.4989-0.24103-2.1392t-1.0997-0.64024q-0.4444 0-0.97919 0.16571-0.53479 0.16571-0.79089 0.30129 0 0.2109-0.03013 0.70803l-0.06779 1.8153q0 0.17324-0.0075 0.31636 0 0.14311-0.0075 0.31635 0 0.73063 0.09792 0.94153 0.03766 0.12805 0.18077 0.18078 0.14311 0.0452 0.76076 0.0979v0.26362q-0.24856-0.0301-1.0545-0.0301-0.83608 0-1.8002 0.0753l0.01506-0.24857q0.48206-0.0979 0.63271-0.1883 0.15818-0.0979 0.2109-0.36155 0.06026-0.26363 0.08285-0.98672 0.0226-1.1826 0.06026-2.0262l0.03013-2.109q0.01506-0.32388 0.01506-1.4387 0-1.0168-0.09039-1.4989-0.08286-0.4896-0.42181-0.4896-0.05273 0-0.47453 0.12052z"/>
<path d="m39.64 283.63 0.03013-0.2335q0.64024-0.0603 0.7231-0.22597 0.03766-0.0678 0.06779-0.53479 0.03013-0.47453 0.04519-1.1223 0.0226-0.65531 0.0226-0.73816 0-1.0696-0.03766-1.3709-0.03013-0.30129-0.12805-0.41427-0.03013-0.0377-0.37661-0.0753-0.34648-0.0377-0.34648-0.0979 0-0.12051 0.13558-0.15064 0.89634-0.27869 1.755-0.98672 0.05273 0 0.14311 0.0301-0.07532 0.30883-0.12805 0.90387-0.05273 0.59505-0.09039 1.2504-0.03013 0.6553-0.03013 1.16 0 0.37661 0.0226 1.0846 0.03013 0.70049 0.09792 0.94906 0.06026 0.13558 0.15064 0.17324 0.09039 0.0377 0.36155 0.0603 0.26363 8e-3 0.52726 0.0452l0.09039 0.21844zm1.1374-9.0086q0-0.25609 0.17324-0.4218 0.17324-0.16571 0.41427-0.16571t0.40674 0.17324 0.16571 0.41427q0 0.24104-0.16571 0.41428-0.15818 0.17324-0.40674 0.17324-0.24103 0-0.41427-0.17324-0.17324-0.17324-0.17324-0.41428z"/>
<path d="m44.702 279.15-0.92647 0.41427q-0.06026-0.24103-0.06026-0.35402 0-0.38414 0.467-0.70803 0.47453-0.33142 1.062-0.53479 0.59505-0.20337 0.82855-0.20337 0.20337 0 0.50466 0.18078 0.30129 0.18077 0.48206 0.36154 0.15818 0.15065 0.24103 0.30129 0.09039 0.14312 0.15818 0.45947 0.06779 0.31635 0.06779 0.80595 0 0.14311-0.03766 1.0093l-0.03013 0.56492q-0.03013 0.40674-0.03013 0.64777 0 0.30882 0.08286 0.66284 0.07532 0.36155 0.33895 0.36155 0.29376 0 0.78335-0.21844v0.30882l-1.1072 0.44441q-0.33142 0.11298-0.37661 0.11298-0.17324 0-0.34648-0.22597-0.16571-0.2335-0.27116-0.54985-1.3935 0.77582-2.1392 0.77582-0.45947 0-0.69297-0.26363-0.2335-0.27116-0.2335-0.80595 0-0.51219 0.12052-0.76075 0.12805-0.24857 0.40674-0.39168 0.56492-0.28623 1.1976-0.42181 0.63271-0.14311 1.3257-0.24103l0.03766-0.92646v-0.24857q0-0.64024-0.36908-1.0093-0.36155-0.37661-0.85114-0.37661-0.2335 0-0.47453 0.13558-0.2335 0.12805-0.2335 0.36908 0 0.12051 0.07532 0.32389zm1.7851 3.5628q-0.0226-0.24857 0.04519-1.4161-0.99426-0.0678-1.5968 0.24104-0.60258 0.30882-0.60258 0.77582 0 0.33895 0.18077 0.64024 0.18831 0.30129 0.51219 0.30129 0.36155 0 1.4613-0.54232z"/>
<path d="m52.769 283.69-0.10545-0.2787q0.79842-0.0904 0.97166-0.32388 0.12805-0.18078 0.20337-1.6646 0.07532-1.4914 0.07532-2.576l0.01506-2.4856q0-1.0168-0.07532-1.4612-0.06779-0.4444-0.29376-0.58752-0.22597-0.15064-0.71556-0.16571l0.01506-0.24856q0.43687-0.0753 0.76076-0.0753 0.10545 0 0.78335 0.0301 0.51219 0.0452 0.80595 0.0452l1.0922-0.0151q0 0.13558 0.01506 0.26363l-0.39921 0.0603q-0.37661 0.0527-0.51219 0.12805-0.13558 0.0753-0.20337 0.30882-0.06026 0.22597-0.13558 0.934-0.07532 0.6779-0.07532 1.6044 0 0.76829 0.01506 1.2052h3.5628q2.0412 0 2.5233-8e-3t0.7005-0.0527l0.01506-1.5893q0-1.2955-0.03013-1.6194-0.0226-0.33142-0.10545-0.51219-0.08286-0.24103-0.27116-0.32389-0.18831-0.0904-0.79842-0.21843l0.03766-0.27869q0.34648 0.0452 0.69297 0.0829 0.4444 0.0452 0.98672 0.0452 0.13558 0 0.78335-0.0301 0.6779-0.0301 0.76076-0.0301l0.03013 0.2109q-0.10545 0.0301-0.14311 0.0452-0.30882 0.0753-0.467 0.19584-0.15818 0.12052-0.2335 0.38414-0.06779 0.2561-0.09039 0.58752t-0.05273 1.6119l-0.06779 3.4724q-0.03766 1.4311 0.03013 2.0563 0.07532 0.62517 0.28622 0.81348 0.21844 0.18831 0.75322 0.24856l-0.01506 0.22597q-0.29376-0.0678-0.73063-0.0904-0.24103-0.0151-0.63271-0.0151-0.13558 0-0.90387 0.0301-0.61011 0.0452-0.94153 0.0452l-0.03013-0.26363q0.51219-0.0602 0.7231-0.20337 0.2109-0.14311 0.27869-0.45946 0.06779-0.31636 0.09039-1.0922l0.04519-1.7098-0.01507-0.98672-0.83608-0.0377-4.3009-0.0301-1.6345 0.0151q-0.04519 0.88127-0.04519 2.6288 0 1.0922 0.09039 1.3558 0.03766 0.14311 0.12805 0.24103 0.09792 0.0979 0.31635 0.18077 0.21844 0.0753 0.67037 0.16571l-0.01506 0.24104q-0.15818-8e-3 -0.55739-0.0377-0.39168-0.0301-0.76076-0.0527-0.36908-0.0151-0.66284-0.0151-0.47453 0-1.401 0.0753z"/>
<path d="m64.481 279.03v-0.30882l1.6722-0.92647 0.15064-0.0603q0.10545 0 0.10545 0.13558l-0.09039 1.2956q-0.09039 1.5366-0.09039 1.8981 0 0.85114 0.22597 1.4161 0.22597 0.55738 1.0545 0.55738 0.26363 0 0.54232-0.0829 0.28622-0.0904 0.6553-0.26363 0.37661-0.18077 0.58752-0.28623 0-0.56491 0.0226-0.73816l0.04519-1.5441q0.0226-0.70049-0.04519-0.98672-0.06779-0.29376-0.26363-0.37661-0.18831-0.0829-0.63271-0.0979l-0.01507-0.27869 2.0036-0.467q-0.03766 0.6779-0.08286 1.2955-0.03766 0.61012-0.07532 1.3106-0.03013 0.7005-0.03013 1.0394 0 1.0997 0.14311 1.5366 0.39168-0.0151 0.84361-0.18077v0.33895q-0.85114 0.2335-1.7249 0.55738-0.12805-0.4218-0.20337-1.0696-1.8454 0.94153-2.561 0.94153-0.48206 0-0.96413-0.45947t-0.43687-1.7776l0.06026-1.6948q0.01506-0.45193-0.03766-0.68543-0.04519-0.24103-0.28623-0.24103-0.13558 0-0.57245 0.20337z"/>
<path d="m71.938 278.39v-0.45194l1.0018-0.0151q0.0075-1.3106 0.22597-2.0789 0.21844-0.76829 0.63271-1.2504 0.33142-0.38415 0.82855-0.7005 0.49713-0.32389 0.98672-0.49713t0.81348-0.17324q0.43687 0 0.86621 0.15817 0.42934 0.15065 0.42934 0.36155 0 0.12052-0.16571 0.36155-0.16571 0.24103-0.31635 0.24103l-0.60258-0.2109q-0.63271-0.2335-1.0018-0.2335-0.59505 0-0.9566 0.34648-0.36155 0.34649-0.54985 1.2278t-0.21844 2.448h2.0488v0.48206l-2.0488 0.0151-0.03013 2.1467q0 1.2956 0.0226 1.9057t0.12805 0.71557q0.06779 0.0527 0.22597 0.0678t0.91893 0.0377v0.29375q-0.4444-0.0151-1.514-0.0226-1.062-8e-3 -1.7776-8e-3v-0.24857q0.39921-0.0226 0.59505-0.0979 0.20337-0.0829 0.29376-0.27869 0.09792-0.20337 0.12052-0.57245 0.03013-0.37661 0.03013-1.0545l0.01506-2.5158q0-0.27117-0.06026-0.30883-0.14311-0.0904-0.94153-0.0904z"/>
<path d="m76.838 278.39v-0.45194l1.0018-0.0151q0.0075-1.3106 0.22597-2.0789 0.21844-0.76829 0.63271-1.2504 0.33142-0.38415 0.82855-0.7005 0.49713-0.32389 0.98672-0.49713t0.81348-0.17324q0.43687 0 0.86621 0.15817 0.42934 0.15065 0.42934 0.36155 0 0.12052-0.16571 0.36155t-0.31635 0.24103l-0.60258-0.2109q-0.63271-0.2335-1.0018-0.2335-0.59505 0-0.9566 0.34648-0.36155 0.34649-0.54985 1.2278t-0.21844 2.448h2.0488v0.48206l-2.0488 0.0151-0.03013 2.1467q0 1.2956 0.0226 1.9057t0.12805 0.71557q0.06779 0.0527 0.22597 0.0678t0.91893 0.0377v0.29375q-0.4444-0.0151-1.514-0.0226-1.062-8e-3 -1.7776-8e-3v-0.24857q0.39921-0.0226 0.59505-0.0979 0.20337-0.0829 0.29376-0.27869 0.09792-0.20337 0.12052-0.57245 0.03013-0.37661 0.03013-1.0545l0.01506-2.5158q0-0.27117-0.06026-0.30883-0.14311-0.0904-0.94153-0.0904z"/>
<path d="m81.211 283.61 0.01506-0.2335q0.45194-0.10545 0.6553-0.26362 0.20337-0.15818 0.29376-0.67037 0.09792-0.5122 0.09792-1.5592 0-1.0168-0.10545-1.4462-0.09792-0.42934-0.30129-0.53479-0.19584-0.10545-0.6553-0.12051v-0.24857q0.80595-0.1883 1.6496-0.69297 0.09039-0.0602 0.15064-0.0602 0.15064 0 0.18077 0.39167 0.03766 0.39168 0.0075 0.68544 0.15818-0.0904 0.55739-0.30129 0.40674-0.21844 0.63271-0.32389 0.2335-0.11298 0.59505-0.22597 0.36155-0.12051 0.63271-0.12051 0.39168 0 0.76829 0.22597 0.38414 0.21843 0.52726 0.73062 1.3935-0.73816 2.4103-0.73816 0.7231 0 1.0545 0.32389 0.33142 0.32389 0.39921 0.83608 0.07532 0.50466 0.07532 1.4612v1.3407q-0.0226 0.57999-0.01506 0.79842 0.0075 0.2109 0.06779 0.27869 0.06779 0.0603 0.24103 0.0829 0.06026 8e-3 0.41427 0.0828 0.36155 0.0753 0.41427 0.0829l-0.10545 0.20337h-2.8547l-0.04519-0.20337q0.467-0.12052 0.64024-0.26363 0.17324-0.14311 0.24103-0.61011 0.07532-0.467 0.07532-1.6345 0-0.69296-0.12052-1.175-0.11298-0.48206-0.41427-0.73816-0.30129-0.26363-0.83608-0.26363-0.6779 0-1.5742 0.41428 0.03766 0.31635 0.05272 1.0922 0.01507 0.76829 0.03013 1.5893 0.01506 0.81348 0.0226 1.0545 0.01506 0.20337 0.06779 0.28622 0.05273 0.0753 0.19584 0.11299 0.15064 0.0377 0.63271 0.10545v0.2335h-0.94153q-0.12805 0-0.94906 0.0301-0.82102 0.0301-0.97919 0.0301l-0.04519-0.2335q0.49713-0.0979 0.71556-0.2561 0.21844-0.16571 0.28622-0.57245 0.07532-0.41427 0.06026-1.401l-0.015036-0.73064q-0.01507-0.92647-0.28623-1.4085-0.26363-0.4896-0.87374-0.4896-0.29376 0-0.61764 0.10545-0.32389 0.10545-0.61764 0.2561-0.29376 0.14311-0.50466 0.25609-0.0075 0.12805-0.01506 0.65531-0.0075 0.51972-0.01506 0.85868v0.76828q0.01506 1.3483 0.04519 1.4688 0.03013 0.13558 0.21844 0.24857 0.18831 0.10545 0.81348 0.19583v0.26363q-0.09039 0-0.64777-0.0301-0.55739-0.0301-0.66284-0.0301z"/>
<path d="m93.782 279.15-0.92647 0.41427q-0.06026-0.24103-0.06026-0.35402 0-0.38414 0.467-0.70803 0.47453-0.33142 1.062-0.53479 0.59505-0.20337 0.82855-0.20337 0.20337 0 0.50466 0.18078 0.30129 0.18077 0.48206 0.36154 0.15818 0.15065 0.24103 0.30129 0.09039 0.14312 0.15818 0.45947 0.06779 0.31635 0.06779 0.80595 0 0.14311-0.03766 1.0093l-0.03013 0.56492q-0.03013 0.40674-0.03013 0.64777 0 0.30882 0.08285 0.66284 0.07532 0.36155 0.33895 0.36155 0.29376 0 0.78335-0.21844v0.30882l-1.1072 0.44441q-0.33142 0.11298-0.37661 0.11298-0.17324 0-0.34648-0.22597-0.16571-0.2335-0.27116-0.54985-1.3935 0.77582-2.1392 0.77582-0.45947 0-0.69297-0.26363-0.2335-0.27116-0.2335-0.80595 0-0.51219 0.12052-0.76075 0.12805-0.24857 0.40674-0.39168 0.56492-0.28623 1.1976-0.42181 0.63271-0.14311 1.3257-0.24103l0.03766-0.92646v-0.24857q0-0.64024-0.36908-1.0093-0.36155-0.37661-0.85114-0.37661-0.2335 0-0.47453 0.13558-0.2335 0.12805-0.2335 0.36908 0 0.12051 0.07532 0.32389zm1.7851 3.5628q-0.0226-0.24857 0.04519-1.4161-0.99426-0.0678-1.5968 0.24104-0.60258 0.30882-0.60258 0.77582 0 0.33895 0.18077 0.64024 0.18831 0.30129 0.51219 0.30129 0.36155 0 1.4613-0.54232z"/>
<path d="m97.992 283.49-0.01506-0.21844q0.40674-0.0753 0.59505-0.15817 0.18831-0.0829 0.24856-0.18831 0.06026-0.10545 0.08286-0.28623 0.06026-0.41427 0.08285-1.0168 0.0226-0.60258 0.0226-1.2202 0-0.85868-0.06026-1.1675-0.05273-0.31635-0.24103-0.39921-0.18077-0.0904-0.68543-0.14311 0-0.0979-0.01506-0.14311 0.32389-0.0829 0.85868-0.31636 0.54232-0.24103 0.57245-0.27116 0.28622-0.15064 0.33895-0.15064 0.11298 0 0.14311 0.21843 0.03013 0.21844 0.03013 0.7231 0.82855-0.467 1.3633-0.66284 0.53479-0.20337 1.0244-0.20337 0.73063 0 1.062 0.32388 0.33895 0.31636 0.41427 0.77583 0.0829 0.45193 0.0829 1.1976v1.7927q0 1.062 0.0979 1.16 0.0527 0.0527 0.38414 0.12805 0.33142 0.0753 0.38414 0.0979l0.0151 0.2335q-0.56492-0.0904-1.3106-0.0904-0.63271 0-1.514 0.0904v-0.21844q0.68543-0.13558 0.85114-0.42933 0.11298-0.24857 0.15065-1.047 0.0452-0.80595 0.0452-1.2504 0-0.66284-0.0603-1.0846-0.0527-0.42934-0.30882-0.73063-0.2561-0.30129-0.79842-0.30129-0.24103 0-0.73063 0.0979-0.48959 0.0979-1.1524 0.4444l-0.04519 2.0036q-0.01506 1.2805 0.03013 1.6948 0.01507 0.18078 0.06779 0.27117 0.0602 0.0904 0.25609 0.1657 0.19584 0.0678 0.66284 0.12052l-0.0151 0.2335q-0.16571-0.0151-0.47454-0.0377-0.30882-0.0226-0.79088-0.0377z"/>
</g>
</g>
</svg>
