<?xml version="1.0" encoding="UTF-8" standalone="no"?>
<!-- Created with Inkscape (http://www.inkscape.org/) -->

<svg
   xmlns:dc="http://purl.org/dc/elements/1.1/"
   xmlns:cc="http://creativecommons.org/ns#"
   xmlns:rdf="http://www.w3.org/1999/02/22-rdf-syntax-ns#"
   xmlns:svg="http://www.w3.org/2000/svg"
   xmlns="http://www.w3.org/2000/svg"
   xmlns:xlink="http://www.w3.org/1999/xlink"
   xmlns:sodipodi="http://sodipodi.sourceforge.net/DTD/sodipodi-0.dtd"
   xmlns:inkscape="http://www.inkscape.org/namespaces/inkscape"
   width="400"
   height="100"
   viewBox="0 0 105.83333 26.458334"
   version="1.1"
   id="svg8"
   inkscape:version="0.92.4 (5da689c313, 2019-01-14)"
   sodipodi:docname="name.svg">
  <defs
     id="defs2">
    <linearGradient
       inkscape:collect="always"
       id="linearGradient991">
      <stop
         style="stop-color:#03575a;stop-opacity:1;"
         offset="0"
         id="stop987" />
      <stop
         id="stop995"
         offset="0.25420988"
         style="stop-color:#078b91;stop-opacity:1" />
      <stop
         style="stop-color:#5ff2ca;stop-opacity:1"
         offset="0.50905335"
         id="stop997" />
      <stop
         id="stop999"
         offset="0.75649405"
         style="stop-color:#54a838;stop-opacity:1" />
      <stop
         style="stop-color:#7e9532;stop-opacity:1"
         offset="1"
         id="stop989" />
    </linearGradient>
    <linearGradient
       inkscape:collect="always"
       xlink:href="#linearGradient991"
       id="linearGradient993"
       x1="34.285713"
       y1="219.66255"
       x2="520"
       y2="125.37683"
       gradientUnits="userSpaceOnUse"
       gradientTransform="matrix(0.18212677,0,0,0.18212677,-3.2966498,253.93184)" />
  </defs>
  <sodipodi:namedview
     id="base"
     pagecolor="#ffffff"
     bordercolor="#666666"
     borderopacity="1.0"
     inkscape:pageopacity="0.0"
     inkscape:pageshadow="2"
     inkscape:zoom="1.4"
     inkscape:cx="242.33677"
     inkscape:cy="47.575669"
     inkscape:document-units="px"
     inkscape:current-layer="layer3"
     showgrid="false"
     inkscape:snap-global="false"
     showguides="true"
     inkscape:guide-bbox="true"
     units="px"
     inkscape:window-width="1440"
     inkscape:window-height="837"
     inkscape:window-x="1432"
     inkscape:window-y="-8"
     inkscape:window-maximized="1" />
  <metadata
     id="metadata5">
    <rdf:RDF>
      <cc:Work
         rdf:about="">
        <dc:format>image/svg+xml</dc:format>
        <dc:type
           rdf:resource="http://purl.org/dc/dcmitype/StillImage" />
        <dc:title></dc:title>
      </cc:Work>
    </rdf:RDF>
  </metadata>
  <g
     inkscape:label="Layer 1"
     inkscape:groupmode="layer"
     id="layer1"
     sodipodi:insensitive="true"
     style="display:none"
     transform="translate(0,-270.54166)">
    <image
       sodipodi:absref="C:\Users\cynth\Desktop\name.png"
       y="4.5673814"
       x="3.3836393"
       id="image823"
       xlink:href="file:///C:/Users/cynth/Desktop/name.png"
       preserveAspectRatio="none"
       height="64.770004"
       width="152.73868" />
  </g>
  <g
     inkscape:groupmode="layer"
     id="layer2"
     inkscape:label="Layer 2"
     transform="translate(0,-270.54166)">
    <path
       style="color:#000000;font-style:normal;font-variant:normal;font-weight:normal;font-stretch:normal;font-size:medium;line-height:normal;font-family:sans-serif;font-variant-ligatures:normal;font-variant-position:normal;font-variant-caps:normal;font-variant-numeric:normal;font-variant-alternates:normal;font-feature-settings:normal;text-indent:0;text-align:start;text-decoration:none;text-decoration-line:none;text-decoration-style:solid;text-decoration-color:#000000;letter-spacing:normal;word-spacing:normal;text-transform:none;writing-mode:lr-tb;direction:ltr;text-orientation:mixed;dominant-baseline:auto;baseline-shift:baseline;text-anchor:start;white-space:normal;shape-padding:0;clip-rule:nonzero;display:inline;overflow:visible;visibility:visible;opacity:1;isolation:auto;mix-blend-mode:normal;color-interpolation:sRGB;color-interpolation-filters:linearRGB;solid-color:#000000;solid-opacity:1;vector-effect:none;fill:url(#linearGradient993);fill-opacity:1;fill-rule:evenodd;stroke:none;stroke-width:0.34417662;stroke-linecap:round;stroke-linejoin:round;stroke-miterlimit:4;stroke-dasharray:none;stroke-dashoffset:0;stroke-opacity:1;color-rendering:auto;image-rendering:auto;shape-rendering:auto;text-rendering:auto;enable-background:accumulate"
       d="m 10.104608,272.8798 c -0.18791,-0.002 -0.3855942,0.008 -0.5915565,0.0327 -1.6476944,0.19335 -3.8635625,1.23611 -6.0955551,3.27118 -4.5082725,4.11048 -3.15013971,11.16338 1.3378493,13.48484 1.8462871,0.95501 3.7642325,1.76908 5.5939943,2.39397 0.505726,1.22341 1.616383,2.19225 2.979481,2.79807 1.904666,0.84652 4.313839,1.01201 6.342779,0.20987 2.751506,-1.08781 5.522572,-2.61215 7.804771,-3.89082 2.929996,2.27322 5.919338,4.36358 8.87299,4.36251 2.443258,-7e-4 5.295813,-1.00625 7.816156,-2.18517 1.635863,1.20646 2.750043,2.05746 2.750043,2.05746 0.03002,0.0233 0.06692,0.0361 0.104936,0.0362 h 25.849551 c 0.0302,-3.7e-4 0.05976,-0.009 0.08573,-0.0241 l 7.046389,-4.06834 h 10.431022 c 0.0996,0.41896 0.476973,0.73278 0.92558,0.73278 0.524084,0 0.952963,-0.42782 0.952963,-0.95189 0,-0.52409 -0.428879,-0.95297 -0.952963,-0.95297 -0.481613,0 -0.88092,0.36267 -0.942652,0.82811 H 79.955211 c -0.03032,3.1e-4 -0.06001,0.009 -0.08608,0.0241 l -7.04639,4.06834 h -25.74604 c -0.02446,-0.0187 -1.043802,-0.7978 -2.559024,-1.91732 0.419289,-0.20115 0.829177,-0.40557 1.224022,-0.6104 0.342337,-0.1776 0.621179,-0.32779 0.872571,-0.46671 0.98119,0.95514 1.609261,1.61887 1.609261,1.61887 0.03251,0.0345 0.07781,0.0541 0.125213,0.0541 h 23.28697 c 0.03022,-1e-5 0.05991,-0.008 0.08608,-0.0231 l 15.692422,-9.06009 c 0.0075,-0.004 0.01462,-0.009 0.02134,-0.015 0.166258,0.14055 0.378298,0.22873 0.611835,0.22873 0.524086,0 0.952964,-0.42782 0.952964,-0.9519 0,-0.52409 -0.428878,-0.95331 -0.952964,-0.95331 -0.52409,0 -0.95332,0.42922 -0.95332,0.95331 0,0.16553 0.04654,0.31908 0.121653,0.45495 L 71.589812,293.4409 H 48.418456 c -0.02562,-0.0271 -0.592418,-0.62734 -1.490097,-1.50469 0.787039,-0.44961 1.174916,-0.73321 1.803484,-1.13722 0.36569,0.34546 0.734093,0.72245 1.074261,0.86581 0.02084,0.009 0.0432,0.0133 0.0658,0.0134 h 21.801503 c 0.0302,8e-5 0.05988,-0.008 0.08608,-0.0228 l 7.784847,-4.4934 c 0.145684,0.0907 0.31588,0.14549 0.499429,0.14549 0.524084,0 0.95332,-0.42781 0.95332,-0.9519 0,-0.52408 -0.429236,-0.95332 -0.95332,-0.95332 -0.524092,0 -0.951896,0.42924 -0.951896,0.95332 0,0.21046 0.07131,0.40339 0.187817,0.56132 l -7.652168,4.41694 H 49.923141 c -0.245,-0.10639 -0.57354,-0.44034 -0.882175,-0.71927 0.410793,-0.26801 1.599085,-0.94966 1.613529,-0.95972 h 20.190816 c 0.03008,2e-5 0.05964,-0.008 0.08573,-0.0228 l 3.034619,-1.75225 c 0.154784,0.10866 0.342285,0.17359 0.544598,0.17359 0.524084,0 0.951896,-0.42888 0.951896,-0.95297 0,-0.52408 -0.427812,-0.95332 -0.951896,-0.95332 -0.524084,0 -0.953314,0.42924 -0.953314,0.95332 0,0.19392 0.05914,0.3744 0.159712,0.5254 l -2.917228,1.68466 H 50.608607 c -0.03561,-2.2e-4 -0.07041,0.0106 -0.0996,0.031 0,0 -1.281779,0.73833 -1.751549,1.04331 -0.08382,-0.0835 -0.142424,-0.0954 -0.228726,-0.18674 -0.243324,-0.25758 -0.497796,-0.54643 -0.759809,-0.84945 1.060619,-0.55111 2.136376,-1.12554 3.248402,-1.71705 H 67.12203 c 0.03689,0.49096 0.448365,0.88183 0.948336,0.88183 0.524092,0 0.952963,-0.42924 0.952963,-0.95332 0,-0.5241 -0.428871,-0.95191 -0.952963,-0.95191 -0.42927,0 -0.793808,0.28722 -0.911696,0.67907 H 50.975707 c -0.02817,6e-5 -0.0559,0.007 -0.08075,0.0203 -1.15175,0.61253 -2.263446,1.20652 -3.356541,1.77326 -0.239704,-0.28004 -0.481938,-0.56512 -0.733132,-0.85764 -1.648657,-1.80825 -4.588612,-3.83494 -6.878131,-3.3142 -0.430792,0.11117 -0.881587,0.25067 -1.343541,0.41049 -1.059867,-0.56197 -2.057957,-0.91988 -2.918297,-0.91988 -0.762346,0 -1.715311,0.37584 -2.821541,0.95617 -0.352617,-0.18785 -0.685651,-0.35542 -0.98996,-0.49374 -0.653662,-0.29712 -1.176582,-0.47626 -1.5744,-0.47594 -1.576036,9.8e-4 -3.148965,1.00492 -4.750592,2.22535 -1.624334,-1.19636 -3.345706,-2.08165 -5.409379,-2.08165 -0.948242,0 -1.820083,0.10976 -2.628743,0.29382 -1.045714,-0.20838 -1.963533,-0.2692 -2.759648,-0.19956 -1.141054,0.0998 -2.038535,0.46095 -2.729412,1.01379 -0.941037,0.75304 -1.481266,1.84393 -1.7455,3.0677 -0.7743349,0.51257 -1.4695815,0.88597 -2.125049,0.964 -1.3385367,0.15934 -2.3342074,-0.0481 -2.9940647,-0.29169 -0.6598588,-0.24358 -0.9721748,-0.51372 -0.9721748,-0.51372 -0.033147,-0.0328 -0.078208,-0.0508 -0.1248565,-0.0498 -3.54898728,-2.61932 -4.41647673,-8.70678 -0.3912879,-12.3768 2.1910844,-1.99776 4.3653678,-3.00301 5.9048909,-3.18366 0.769763,-0.0904 1.373118,0.0282 1.745145,0.29737 0.372027,0.26918 0.545188,0.68265 0.454249,1.30406 -0.168617,1.15224 -0.624562,1.62796 -1.074262,1.83657 0.07214,-0.13399 0.11703,-0.28444 0.11703,-0.44644 0,-0.52408 -0.429234,-0.95188 -0.9533193,-0.95188 -0.5240868,0 -0.9529643,0.4278 -0.9529643,0.95188 0,0.35404 0.19799,0.66091 0.486619,0.82527 0.024234,0.0279 0.056781,0.0472 0.092834,0.0551 0,0 0.022782,0.005 0.028818,0.007 0.1071765,0.0419 0.223122,0.0662 0.3446881,0.0662 0.04722,0 0.093295,-0.005 0.1387296,-0.0114 0.1889869,-1e-4 0.4137009,-0.024 0.6477599,-0.10315 0.608772,-0.20591 1.264007,-0.80189 1.465551,-2.17912 0.104198,-0.71201 -0.120839,-1.29116 -0.594401,-1.63381 -0.355173,-0.25698 -0.831747,-0.38458 -1.395475,-0.39163 z m -0.2621624,2.75786 c 0.3380764,0 0.6089854,0.26985 0.6089854,0.60792 0,0.33808 -0.270909,0.60899 -0.6089854,0.60899 -0.3380798,0 -0.6089867,-0.27091 -0.6089867,-0.60899 0,-0.33807 0.2709069,-0.60792 0.6089867,-0.60792 z m 78.2049554,7.71727 c 0.338078,0 0.608987,0.2709 0.608987,0.60898 0,0.33808 -0.270909,0.60758 -0.608987,0.60758 -0.338077,0 -0.608986,-0.2695 -0.608986,-0.60758 0,-0.33808 0.270909,-0.60898 0.608986,-0.60898 z m -57.767983,1.37521 c 0.285137,-2e-4 0.796364,0.15617 1.431758,0.44499 0.236029,0.10728 0.49552,0.23734 0.765146,0.37741 -0.105743,0.0578 -0.210389,0.11438 -0.318722,0.17537 -1.314302,0.73995 -2.81767,1.71348 -4.393098,2.70416 -0.646347,-0.55571 -1.290822,-1.10402 -1.948258,-1.60571 1.558221,-1.17818 3.05948,-2.09518 4.463174,-2.09622 z m 5.3859,0.0134 c 0.69222,0 1.545891,0.27819 2.471161,0.73598 -0.654239,0.24078 -1.324857,0.51687 -1.989876,0.81031 -0.322058,0.14211 -0.642625,0.28793 -0.959011,0.43575 -0.359929,-0.22429 -0.713334,-0.44111 -1.052211,-0.6417 -0.321508,-0.19033 -0.627892,-0.36392 -0.925216,-0.52824 1.001235,-0.50422 1.851387,-0.8121 2.455153,-0.8121 z m -15.545872,0.13054 c 1.929112,0 3.56043,0.8176 5.12445,1.95608 -0.463392,0.35917 -0.9293,0.73133 -1.397966,1.10415 -1.676917,-1.23945 -3.325082,-2.28276 -4.924535,-2.75645 -0.202487,-0.06 -0.400482,-0.11442 -0.59476,-0.16469 0.565806,-0.0881 1.161163,-0.13909 1.792811,-0.13909 z m -4.57878,0.0658 c 0.360057,0.007 0.744018,0.0387 1.15181,0.0953 -1.558463,0.47246 -2.863837,1.2157 -3.994341,1.97102 -0.73684,0.49229 -1.401546,0.98287 -2.016556,1.40971 0.274862,-1.01179 0.762984,-1.89123 1.535273,-2.50924 0.634577,-0.50779 1.468543,-0.84909 2.552977,-0.94264 0.135552,-0.0118 0.27521,-0.0193 0.418676,-0.0231 0.114667,-0.003 0.232141,-0.003 0.352161,-9.8e-4 z m 31.003883,3.50772 c 0.232248,0.27044 0.456547,0.53423 0.680485,0.79608 -0.693579,0.35713 -1.379381,0.70051 -2.062088,1.02873 -0.467102,-0.42569 -0.958721,-0.86471 -1.482271,-1.31116 -1.329528,-1.13378 -2.791318,-2.26805 -4.187848,-3.1232 -0.166686,-0.10206 -0.332112,-0.19968 -0.49658,-0.29347 0.349177,-0.11491 0.690339,-0.21805 1.016993,-0.30235 2.628115,-0.36118 5.465917,1.9779 6.531309,3.20537 z m -29.053491,-3.27331 c 0.421097,0.0865 0.863116,0.19536 1.332514,0.33437 1.505113,0.44575 3.097659,1.44728 4.737431,2.65186 -1.087683,0.85997 -2.188006,1.69072 -3.296424,2.2741 -1.72217,0.9064 -2.965934,1.0059 -3.784467,0.77973 -0.818532,-0.22618 -1.223369,-0.77971 -1.301565,-1.2098 -0.03356,-0.18455 0.0465,-0.36754 0.224457,-0.56095 0.177954,-0.19344 0.446722,-0.37922 0.72495,-0.53501 0.223934,-0.1254 0.435123,-0.22077 0.625348,-0.30129 -0.01878,0.0744 -0.02988,0.15161 -0.02988,0.23157 0,0.52408 0.429235,0.95297 0.953318,0.95297 0.524086,0 0.952967,-0.42889 0.952965,-0.95297 0,-0.52409 -0.428879,-0.95189 -0.952965,-0.95189 -0.229734,0 -0.438557,0.0855 -0.603649,0.22197 -0.183268,0.0648 -0.647692,0.23898 -1.113392,0.49978 -0.296698,0.16615 -0.591934,0.36481 -0.810678,0.60259 -0.218743,0.23775 -0.367549,0.53235 -0.309117,0.85371 0.105778,0.58178 0.61955,1.22479 1.548789,1.48156 0.929238,0.25676 2.262585,0.12516 4.035957,-0.8082 1.169727,-0.61564 2.309646,-1.48257 3.423769,-2.36585 0.587114,0.43797 1.182889,0.90301 1.779651,1.37199 -2.861629,1.7 -5.831173,3.17569 -8.314515,3.30639 -1.671815,0.088 -4.087384,-0.39245 -6.71059,-1.27347 -0.143565,-0.40059 -0.216229,-0.82818 -0.205248,-1.27844 0.01319,-0.54057 0.06688,-1.06862 0.165408,-1.57192 0.714312,-0.48273 1.472256,-1.06409 2.326029,-1.63452 1.28437,-0.85811 2.771806,-1.68952 4.601904,-2.11828 z m 21.062678,0.52112 c 0.250222,0.13515 0.503164,0.27838 0.760166,0.43576 1.371959,0.84007 2.82125,1.96568 4.142317,3.09223 0.480325,0.40961 0.934077,0.81435 1.370574,1.2105 -0.850003,0.40242 -1.696531,0.77853 -2.54764,1.12159 -0.794257,-0.57262 -1.637101,-1.1733 -2.506732,-1.77966 -1.418134,-0.9888 -2.881072,-1.97555 -4.235515,-2.83115 0.248183,-0.11468 0.496849,-0.22956 0.748071,-0.34043 0.762024,-0.33622 1.530686,-0.64815 2.268759,-0.90884 z m -5.712449,0.0498 c 0.352931,0.1913 0.725663,0.40256 1.11766,0.6346 0.277892,0.1645 0.567,0.34096 0.860122,0.5222 -2.075127,0.98808 -3.919814,2.01397 -4.711818,2.42882 -0.187537,0.0983 -0.495918,0.26935 -0.780798,0.42615 -0.366478,-0.30189 -0.728307,-0.60934 -1.087781,-0.9181 -0.06707,-0.0576 -0.133679,-0.11456 -0.200623,-0.17217 1.543702,-0.97181 3.013531,-1.92183 4.287448,-2.63906 0.175451,-0.0988 0.347456,-0.19302 0.51579,-0.28244 z m 47.202495,9.8e-4 c 0.338078,0 0.608986,0.27091 0.608986,0.609 0,0.33808 -0.270908,0.60756 -0.608986,0.60756 -0.338085,0 -0.607561,-0.26948 -0.607561,-0.60756 0,-0.33809 0.269476,-0.609 0.607561,-0.609 z m -5.533527,0.74488 c 0.338078,0 0.607568,0.27091 0.607568,0.60898 0,0.33808 -0.26949,0.609 -0.607568,0.609 -0.338078,0 -0.609337,-0.27092 -0.609337,-0.609 0,-0.33807 0.271259,-0.60898 0.609337,-0.60898 z m -6.439889,0.461 c 0.338085,0 0.608987,0.26949 0.608987,0.60757 0,0.33808 -0.270902,0.60899 -0.608987,0.60899 -0.338077,0 -0.607919,-0.27091 -0.607919,-0.60899 0,-0.33808 0.269842,-0.60757 0.607919,-0.60757 z m -42.541541,0.091 c 0.64681,0.48853 1.285887,1.02749 1.930829,1.5808 -0.0025,9.8e-4 -0.0049,0.003 -0.0074,0.005 -0.494904,0.30975 -0.997892,0.61929 -1.504324,0.92378 -0.607481,-0.47925 -1.214448,-0.95438 -1.815576,-1.40542 0.470012,-0.37463 0.935737,-0.7481 1.396541,-1.10379 z m 9.636712,0.0741 c 1.399214,0.87756 2.929656,1.90817 4.410527,2.94071 0.801389,0.55876 1.578054,1.11209 2.321049,1.64662 -1.606679,0.62738 -3.235033,1.13608 -4.944101,1.47373 -2.974371,-0.0673 -5.247763,-1.49805 -7.339495,-3.18686 0.2324,-0.12768 0.499336,-0.27624 0.653805,-0.35714 0.830219,-0.43488 2.757277,-1.50784 4.898215,-2.51706 z m -17.488796,1.11339 c 0.338079,0 0.608987,0.26985 0.608987,0.60792 0,0.33809 -0.270908,0.609 -0.608987,0.609 -0.338077,0 -0.608986,-0.27091 -0.608986,-0.609 0,-0.33807 0.270909,-0.60792 0.608986,-0.60792 z m 10.056458,0.62784 c 0.09379,0.0806 0.186417,0.15987 0.280662,0.24083 0.324946,0.27912 0.653387,0.55902 0.986401,0.83522 -0.484279,0.26876 -1.013279,0.56493 -1.501124,0.83843 -0.422158,-0.32897 -0.840699,-0.65996 -1.260658,-0.99174 0.47027,-0.28471 0.936894,-0.57315 1.396542,-0.86084 0.03384,-0.0212 0.06441,-0.0408 0.09817,-0.0619 z m -17.565629,0.32946 c -0.06584,0.42493 -0.103062,0.86154 -0.11383,1.303 -0.0098,0.40198 0.04403,0.78527 0.147978,1.15001 -1.3129981,-0.45786 -2.6693225,-1.01421 -4.0067883,-1.64767 0.5575102,0.0826 1.2141413,0.10818 1.9763605,0.0174 0.6599489,-0.0785 1.3106549,-0.3909 1.9962798,-0.82276 z m 37.288323,0.32477 c 0.282465,0.32736 0.55725,0.63917 0.822772,0.92024 0.05988,0.0634 0.10941,0.0756 0.168253,0.13589 -0.641468,0.41007 -1.000647,0.67597 -1.777158,1.11694 -0.370064,-0.35812 -0.777434,-0.74516 -1.23149,-1.16355 0.66864,-0.32342 1.339739,-0.65961 2.017623,-1.00952 z m -21.53649,0.4603 c 0.416455,0.32802 0.830988,0.65429 1.250342,0.98178 -2.267547,1.26814 -4.965061,2.74375 -7.624425,3.79513 -1.92654,0.76165 -4.255858,0.60508 -6.076703,-0.20418 -1.195012,-0.53111 -2.159965,-1.33383 -2.671785,-2.33102 2.524985,0.82553 4.849883,1.26857 6.534155,1.17992 2.637483,-0.13881 5.681382,-1.68117 8.588416,-3.42163 z m 3.368277,0.19671 c 2.150756,1.751 4.531096,3.28855 7.674936,3.35405 0.01264,3.9e-4 0.02529,-6.2e-4 0.03771,-0.003 1.815008,-0.35699 3.536761,-0.9014 5.232588,-1.57547 0.576544,0.41638 1.11272,0.8073 1.615308,1.17671 -2.457461,1.13134 -5.204596,2.0744 -7.498857,2.07526 -2.749647,9.8e-4 -5.658213,-1.97969 -8.537193,-4.20422 0.476846,-0.26769 0.997587,-0.5587 1.475512,-0.82384 z m 62.071086,0.35998 c 0.338071,0 0.608986,0.27091 0.608986,0.60899 0,0.33807 -0.270915,0.60791 -0.608986,0.60791 -0.338091,0 -0.607919,-0.26984 -0.607919,-0.60791 0,-0.33808 0.269828,-0.60899 0.607919,-0.60899 z m -46.256648,0.15403 c 0.456535,0.419 0.874445,0.81305 1.252478,1.17742 -0.224359,0.12317 -0.469839,0.25542 -0.770128,0.41121 -0.444156,0.23042 -0.907663,0.45998 -1.382312,0.6844 -0.49409,-0.36386 -1.01982,-0.74904 -1.59361,-1.16426 0.833523,-0.34137 1.662313,-0.71262 2.493572,-1.10877 z"
       id="path829"
       inkscape:connector-curvature="0"
       sodipodi:nodetypes="cccsccccccccccccsssccccccccccccccssssccccccccccssssccccccccsssscccccccccssscccccccsccccscccccccccccccssscccsccccccsssssssssscccccccscccccssccccsccccccccccccccccccccccccccsscsccccccccccccccccccccccccccccccccsssssssssssssssccccccccccccccssssscccccccccccccccccccccccccccccccccccccssssscccccc" />
  </g>
  <g
     inkscape:groupmode="layer"
     id="layer3"
     inkscape:label="Layer 3"
     transform="translate(0,-270.54166)">
    <g
       aria-label="Cynthia Huffman"
       style="font-style:normal;font-variant:normal;font-weight:normal;font-stretch:normal;font-size:15.42603588px;line-height:1.25;font-family:Centaur;-inkscape-font-specification:Centaur;letter-spacing:0px;word-spacing:0px;fill:#03575a;fill-opacity:0.98888885;stroke:none;stroke-width:0.96412724"
       id="text985">
      <path
         d="m 13.322393,282.08386 q -0.03766,0.0979 -0.323887,1.11477 -0.813482,0.24103 -1.476319,0.37661 -0.662838,0.12805 -1.438659,0.12805 -0.9339983,0 -1.8679966,-0.33142 -0.9339982,-0.33142 -1.6796904,-0.97919 -0.7456922,-0.6553 -1.1825623,-1.5893 -0.4368702,-0.94153 -0.4368702,-2.13916 0,-1.64203 0.8059501,-2.77187 0.8134824,-1.12983 2.0638349,-1.66462 1.2578848,-0.53479 2.5910915,-0.53479 1.046982,0 2.018642,0.36908 0.451935,0.14311 0.677902,0.14311 0.105451,-0.0226 0.150645,-0.0301 0.05272,-0.008 0.128048,-0.0151 0.04519,0 0.09792,0.0603 l -0.112984,0.42933 q -0.158177,0.56492 -0.278693,1.43866 -0.13558,-0.0226 -0.180773,-0.0904 -0.04519,-0.0753 -0.04519,-0.2335 -0.01506,-0.47454 -0.128048,-0.64778 -0.203371,-0.33142 -1.016853,-0.6779 -0.813482,-0.34648 -1.634497,-0.34648 -1.0846432,0 -1.9659157,0.54232 -0.8737403,0.53479 -1.3859329,1.57424 -0.5046604,1.03945 -0.5046604,2.44044 0,1.28802 0.4444024,2.22202 0.4519347,0.92646 1.1223044,1.46878 0.6779019,0.54233 1.3708684,0.78336 0.7004987,0.24103 1.2126908,0.24103 0.813483,0 1.348272,-0.26363 0.53479,-0.27116 0.836079,-0.64024 0.308822,-0.37661 0.595048,-0.89634 0.112983,-0.21843 0.195838,-0.21843 0.143113,0 0.143113,0.13558 0,0.0979 -0.143113,0.60258 z"
         style="font-style:normal;font-variant:normal;font-weight:normal;font-stretch:normal;font-family:Centaur;-inkscape-font-specification:Centaur;fill:#03575a;fill-opacity:0.98888885;stroke-width:0.96412724"
         id="path1001" />
      <path
         d="m 14.068085,278.34033 v -0.2335 q 0.36908,0.0452 1.031918,0.0452 0.775821,0 1.54411,-0.0904 l -0.0226,0.27869 q -0.308822,0.0603 -0.444402,0.14312 -0.135581,0.0753 -0.135581,0.30129 0,0.36154 0.323887,1.5667 0.323886,1.20516 0.768289,2.39526 l 0.497128,-0.88881 q 0.323886,-0.55739 0.768289,-1.55164 0.444402,-0.99426 0.444402,-1.36334 0,-0.52725 -1.046982,-0.6553 l 0.105451,-0.24103 q 0.896337,0.0904 1.559175,0.0904 0.489596,0 0.745692,-0.0452 l -0.01506,0.24856 q -0.203371,0.0301 -0.36908,0.15818 -0.158177,0.12052 -0.30129,0.34648 -0.13558,0.21844 -0.30129,0.55739 l -0.821014,1.69475 q -0.01506,0.0377 -0.572451,1.11478 -0.80595,1.58177 -1.212691,2.51577 -0.399209,0.93399 -0.587515,1.55164 -0.180774,0.61764 -0.421806,1.6345 h -1.604368 v -0.2561 q 0.497128,-0.11298 0.798418,-0.35402 0.30129,-0.2335 0.542321,-0.64777 0.241032,-0.40674 0.60258,-1.23529 l 0.587515,-1.31061 q -0.429338,-1.61943 -0.790886,-2.84719 -0.361547,-1.22775 -0.685434,-1.99604 -0.150645,-0.39168 -0.308822,-0.57998 -0.150645,-0.19584 -0.286225,-0.24104 -0.128048,-0.0527 -0.391677,-0.10545 z"
         style="font-style:normal;font-variant:normal;font-weight:normal;font-stretch:normal;font-family:Centaur;-inkscape-font-specification:Centaur;fill:#03575a;fill-opacity:0.98888885;stroke-width:0.96412724"
         id="path1003" />
      <path
         d="m 20.440364,283.49239 -0.01506,-0.21844 q 0.406741,-0.0753 0.595047,-0.15817 0.188306,-0.0829 0.248564,-0.18831 0.06026,-0.10545 0.08286,-0.28623 0.06026,-0.41427 0.08285,-1.01685 0.0226,-0.60258 0.0226,-1.22022 0,-0.85868 -0.06026,-1.1675 -0.05273,-0.31635 -0.241032,-0.39921 -0.180773,-0.0904 -0.685434,-0.14311 0,-0.0979 -0.01506,-0.14311 0.323886,-0.0829 0.858676,-0.31636 0.542321,-0.24103 0.57245,-0.27116 0.286225,-0.15064 0.338951,-0.15064 0.112984,0 0.143113,0.21843 0.03013,0.21844 0.03013,0.7231 0.828547,-0.467 1.363336,-0.66284 0.534789,-0.20337 1.024385,-0.20337 0.730628,0 1.062046,0.32388 0.338951,0.31636 0.414274,0.77583 0.08285,0.45193 0.08285,1.19762 v 1.79268 q 0,1.06204 0.09792,1.15996 0.05272,0.0527 0.384144,0.12805 0.331419,0.0753 0.384145,0.0979 l 0.01506,0.2335 q -0.564918,-0.0904 -1.31061,-0.0904 -0.632709,0 -1.513981,0.0904 v -0.21844 q 0.685434,-0.13558 0.851143,-0.42933 0.112984,-0.24857 0.150645,-1.04699 0.04519,-0.80595 0.04519,-1.25035 0,-0.66284 -0.06026,-1.08464 -0.05273,-0.42934 -0.308822,-0.73063 -0.256097,-0.30129 -0.798418,-0.30129 -0.241032,0 -0.730628,0.0979 -0.489596,0.0979 -1.152433,0.4444 l -0.04519,2.00358 q -0.01506,1.28048 0.03013,1.69475 0.01506,0.18078 0.06779,0.27117 0.06026,0.0904 0.256097,0.1657 0.195838,0.0678 0.662837,0.12052 l -0.01506,0.2335 q -0.16571,-0.0151 -0.474532,-0.0377 -0.308822,-0.0226 -0.790885,-0.0377 z"
         style="font-style:normal;font-variant:normal;font-weight:normal;font-stretch:normal;font-family:Centaur;-inkscape-font-specification:Centaur;fill:#03575a;fill-opacity:0.98888885;stroke-width:0.96412724"
         id="path1005" />
      <path
         d="m 28.4848,281.43609 0.03766,-2.93005 q -0.346483,-0.0452 -0.80595,-0.0452 0.01506,-0.0603 0.01506,-0.18831 0.655306,-0.39921 1.024386,-0.76075 0.36908,-0.36155 0.87374,-1.02439 l -0.07532,1.3558 q 0.647773,0.0603 1.416062,0.0603 0.36908,0 0.80595,-0.0151 l -0.01506,0.467 q -0.391677,0.0452 -0.80595,0.0452 -0.03766,0 -0.293758,-0.008 -0.256096,-0.0151 -0.798418,-0.0377 -0.143112,0 -0.218435,0.0301 -0.06779,0.0226 -0.09792,0.0979 -0.0226,0.0753 -0.03766,0.28622 -0.0075,0.2109 -0.01506,0.4444 l -0.03766,2.35006 q -0.01506,0.67791 0.150645,1.12231 0.173242,0.43687 0.821015,0.43687 0.248564,0 0.610112,-0.10545 0.369079,-0.11299 0.843611,-0.33142 0.01506,0.0603 0.01506,0.0904 0.0075,0.0301 0.01506,0.0678 -0.263629,0.28623 -0.97166,0.56492 -0.700498,0.2787 -1.265417,0.2787 -0.489596,0 -0.843611,-0.33142 -0.346483,-0.33895 -0.346483,-1.15997 z"
         style="font-style:normal;font-variant:normal;font-weight:normal;font-stretch:normal;font-family:Centaur;-inkscape-font-specification:Centaur;fill:#03575a;fill-opacity:0.98888885;stroke-width:0.96412724"
         id="path1007" />
      <path
         d="m 32.190664,274.4311 v -0.28623 q 0.165709,-0.0829 0.218435,-0.11298 l 1.461255,-0.70803 0.248564,-0.13558 0.248564,0.12051 q -0.143112,0.67791 -0.20337,1.56671 -0.06026,0.88127 -0.09039,2.24461 l -0.04519,1.52904 q 0.888805,-0.38414 1.438659,-0.56491 0.557386,-0.18078 1.069578,-0.18078 0.723096,0 1.054515,0.44441 0.331418,0.43687 0.406741,1.07711 0.08286,0.6327 0.08286,1.67215 0,0.20337 -0.0075,0.37662 0,0.17324 -0.0075,0.48959 -0.0075,0.30882 -0.0226,0.57245 -0.0075,0.2561 -0.0075,0.29376 0,0.32389 0.158177,0.42934 0.158177,0.10545 0.87374,0.10545 l -0.01506,0.2335 h -0.489596 q -0.112984,0 -0.933998,0.008 -0.813482,0.008 -0.836079,0.008 -0.0226,0 -0.331419,0.0753 -0.07532,0 -0.07532,-0.10546 0,-0.0753 0.120516,-0.10545 0.286225,-0.0678 0.421805,-0.24103 0.143113,-0.17324 0.188306,-0.58751 0.05273,-0.41428 0.05273,-1.36334 0,-1.49892 -0.241032,-2.13916 -0.241032,-0.64024 -1.099707,-0.64024 -0.444403,0 -0.979192,0.16571 -0.53479,0.16571 -0.790886,0.30129 0,0.2109 -0.03013,0.70803 l -0.06779,1.81527 q 0,0.17324 -0.0075,0.31636 0,0.14311 -0.0075,0.31635 0,0.73063 0.09792,0.94153 0.03766,0.12805 0.180774,0.18078 0.143112,0.0452 0.760756,0.0979 v 0.26362 q -0.248564,-0.0301 -1.054514,-0.0301 -0.836079,0 -1.800206,0.0753 l 0.01506,-0.24857 q 0.482064,-0.0979 0.632709,-0.1883 0.158177,-0.0979 0.210903,-0.36155 0.06026,-0.26363 0.08285,-0.98672 0.0226,-1.18257 0.06026,-2.02618 l 0.03013,-2.10903 q 0.01506,-0.32388 0.01506,-1.43866 0,-1.01685 -0.09039,-1.49891 -0.08286,-0.4896 -0.421806,-0.4896 -0.05273,0 -0.474531,0.12052 z"
         style="font-style:normal;font-variant:normal;font-weight:normal;font-stretch:normal;font-family:Centaur;-inkscape-font-specification:Centaur;fill:#03575a;fill-opacity:0.98888885;stroke-width:0.96412724"
         id="path1009" />
      <path
         d="m 39.640054,283.62797 0.03013,-0.2335 q 0.640241,-0.0603 0.723095,-0.22597 0.03766,-0.0678 0.06779,-0.53479 0.03013,-0.47453 0.04519,-1.1223 0.0226,-0.65531 0.0226,-0.73816 0,-1.06958 -0.03766,-1.37087 -0.03013,-0.30129 -0.128048,-0.41427 -0.03013,-0.0377 -0.376612,-0.0753 -0.346483,-0.0377 -0.346483,-0.0979 0,-0.12051 0.13558,-0.15064 0.896337,-0.27869 1.755013,-0.98672 0.05273,0 0.143113,0.0301 -0.07532,0.30883 -0.128048,0.90387 -0.05273,0.59505 -0.09039,1.25036 -0.03013,0.6553 -0.03013,1.15996 0,0.37661 0.0226,1.08465 0.03013,0.70049 0.09792,0.94906 0.06026,0.13558 0.150644,0.17324 0.09039,0.0377 0.361548,0.0603 0.263629,0.008 0.527257,0.0452 l 0.09039,0.21844 z m 1.137369,-9.00857 q 0,-0.25609 0.173241,-0.4218 0.173242,-0.16571 0.414274,-0.16571 0.241032,0 0.406741,0.17324 0.165709,0.17324 0.165709,0.41427 0,0.24104 -0.165709,0.41428 -0.158177,0.17324 -0.406741,0.17324 -0.241032,0 -0.414274,-0.17324 -0.173241,-0.17324 -0.173241,-0.41428 z"
         style="font-style:normal;font-variant:normal;font-weight:normal;font-stretch:normal;font-family:Centaur;-inkscape-font-specification:Centaur;fill:#03575a;fill-opacity:0.98888885;stroke-width:0.96412724"
         id="path1011" />
      <path
         d="m 44.701722,279.15382 -0.926466,0.41427 q -0.06026,-0.24103 -0.06026,-0.35402 0,-0.38414 0.466999,-0.70803 0.474531,-0.33142 1.062046,-0.53479 0.595048,-0.20337 0.828547,-0.20337 0.203371,0 0.504661,0.18078 0.301289,0.18077 0.482063,0.36154 0.158177,0.15065 0.241032,0.30129 0.09039,0.14312 0.158177,0.45947 0.06779,0.31635 0.06779,0.80595 0,0.14311 -0.03766,1.00932 l -0.03013,0.56492 q -0.03013,0.40674 -0.03013,0.64777 0,0.30882 0.08286,0.66284 0.07532,0.36155 0.338951,0.36155 0.293757,0 0.783353,-0.21844 v 0.30882 l -1.10724,0.44441 q -0.331418,0.11298 -0.376612,0.11298 -0.173242,0 -0.346483,-0.22597 -0.16571,-0.2335 -0.271161,-0.54985 -1.393465,0.77582 -2.139157,0.77582 -0.459467,0 -0.692967,-0.26363 -0.233499,-0.27116 -0.233499,-0.80595 0,-0.51219 0.120516,-0.76075 0.128048,-0.24857 0.406741,-0.39168 0.564918,-0.28623 1.197627,-0.42181 0.632708,-0.14311 1.325675,-0.24103 l 0.03766,-0.92646 v -0.24857 q 0,-0.64024 -0.36908,-1.00932 -0.361548,-0.37661 -0.851144,-0.37661 -0.233499,0 -0.474531,0.13558 -0.2335,0.12805 -0.2335,0.36908 0,0.12051 0.07532,0.32389 z m 1.785142,3.56275 q -0.0226,-0.24857 0.04519,-1.41607 -0.994256,-0.0678 -1.596836,0.24104 -0.602579,0.30882 -0.602579,0.77582 0,0.33895 0.180774,0.64024 0.188306,0.30129 0.512192,0.30129 0.361548,0 1.461256,-0.54232 z"
         style="font-style:normal;font-variant:normal;font-weight:normal;font-stretch:normal;font-family:Centaur;-inkscape-font-specification:Centaur;fill:#03575a;fill-opacity:0.98888885;stroke-width:0.96412724"
         id="path1013" />
      <path
         d="m 52.768753,283.68823 -0.105451,-0.2787 q 0.798418,-0.0904 0.971659,-0.32388 0.128049,-0.18078 0.203371,-1.66463 0.07532,-1.49138 0.07532,-2.57603 l 0.01506,-2.48564 q 0,-1.01685 -0.07532,-1.46125 -0.06779,-0.4444 -0.293758,-0.58752 -0.225967,-0.15064 -0.715563,-0.16571 l 0.01506,-0.24856 q 0.43687,-0.0753 0.760757,-0.0753 0.105451,0 0.783353,0.0301 0.512193,0.0452 0.80595,0.0452 l 1.092176,-0.0151 q 0,0.13558 0.01506,0.26363 l -0.399209,0.0603 q -0.376612,0.0527 -0.512192,0.12805 -0.135581,0.0753 -0.203371,0.30882 -0.06026,0.22597 -0.13558,0.934 -0.07532,0.6779 -0.07532,1.60437 0,0.76829 0.01506,1.20516 h 3.562751 q 2.041238,0 2.523302,-0.008 0.482064,-0.008 0.700499,-0.0527 l 0.01506,-1.58931 q 0,-1.29554 -0.03013,-1.61943 -0.0226,-0.33142 -0.105451,-0.51219 -0.08286,-0.24103 -0.271161,-0.32389 -0.188306,-0.0904 -0.798418,-0.21843 l 0.03766,-0.27869 q 0.346484,0.0452 0.692967,0.0829 0.444402,0.0452 0.986724,0.0452 0.13558,0 0.783353,-0.0301 0.677902,-0.0301 0.760757,-0.0301 l 0.03013,0.2109 q -0.105452,0.0301 -0.143113,0.0452 -0.308822,0.0753 -0.466999,0.19584 -0.158177,0.12052 -0.233499,0.38414 -0.06779,0.2561 -0.09039,0.58752 -0.0226,0.33142 -0.05273,1.6119 l -0.06779,3.47236 q -0.03766,1.43113 0.03013,2.05631 0.07532,0.62517 0.286225,0.81348 0.218435,0.18831 0.753224,0.24856 l -0.01506,0.22597 q -0.293758,-0.0678 -0.730628,-0.0904 -0.241032,-0.0151 -0.632708,-0.0151 -0.135581,0 -0.90387,0.0301 -0.610111,0.0452 -0.94153,0.0452 l -0.03013,-0.26363 q 0.512193,-0.0602 0.723095,-0.20337 0.210903,-0.14311 0.278693,-0.45946 0.06779,-0.31636 0.09039,-1.09218 l 0.04519,-1.70982 -0.01507,-0.98672 -0.836079,-0.0377 -4.300911,-0.0301 -1.634497,0.0151 q -0.04519,0.88127 -0.04519,2.62875 0,1.09218 0.09039,1.35581 0.03766,0.14311 0.128049,0.24103 0.09792,0.0979 0.316354,0.18077 0.218435,0.0753 0.670369,0.16571 l -0.01506,0.24104 q -0.158177,-0.008 -0.557386,-0.0377 -0.391677,-0.0301 -0.760757,-0.0527 -0.36908,-0.0151 -0.662837,-0.0151 -0.474532,0 -1.400998,0.0753 z"
         style="font-style:normal;font-variant:normal;font-weight:normal;font-stretch:normal;font-family:Centaur;-inkscape-font-specification:Centaur;fill:#03575a;fill-opacity:0.98888885;stroke-width:0.96412724"
         id="path1015" />
      <path
         d="m 64.481395,279.0333 v -0.30882 l 1.672158,-0.92647 0.150645,-0.0603 q 0.105451,0 0.105451,0.13558 l -0.09039,1.29555 q -0.09039,1.53658 -0.09039,1.89813 0,0.85114 0.225968,1.41606 0.225967,0.55738 1.054514,0.55738 0.263629,0 0.542322,-0.0829 0.286225,-0.0904 0.655305,-0.26363 0.376612,-0.18077 0.587515,-0.28623 0,-0.56491 0.0226,-0.73816 l 0.04519,-1.54411 q 0.0226,-0.70049 -0.04519,-0.98672 -0.06779,-0.29376 -0.263629,-0.37661 -0.188306,-0.0829 -0.632708,-0.0979 l -0.01507,-0.27869 2.003577,-0.467 q -0.03766,0.6779 -0.08286,1.29554 -0.03766,0.61012 -0.07532,1.31061 -0.03013,0.7005 -0.03013,1.03945 0,1.09971 0.143112,1.53658 0.391677,-0.0151 0.843612,-0.18077 v 0.33895 q -0.851144,0.2335 -1.724884,0.55738 -0.128048,-0.4218 -0.203371,-1.06957 -1.845399,0.94153 -2.560963,0.94153 -0.482063,0 -0.964127,-0.45947 -0.482064,-0.45947 -0.43687,-1.77761 l 0.06026,-1.69476 q 0.01506,-0.45193 -0.03766,-0.68543 -0.04519,-0.24103 -0.286226,-0.24103 -0.13558,0 -0.57245,0.20337 z"
         style="font-style:normal;font-variant:normal;font-weight:normal;font-stretch:normal;font-family:Centaur;-inkscape-font-specification:Centaur;fill:#03575a;fill-opacity:0.98888885;stroke-width:0.96412724"
         id="path1017" />
      <path
         d="m 71.938314,278.38553 v -0.45194 l 1.001789,-0.0151 q 0.0075,-1.31061 0.225967,-2.0789 0.218435,-0.76829 0.632708,-1.25035 0.331419,-0.38415 0.828547,-0.7005 0.497128,-0.32389 0.986724,-0.49713 0.489596,-0.17324 0.813483,-0.17324 0.43687,0 0.866208,0.15817 0.429338,0.15065 0.429338,0.36155 0,0.12052 -0.16571,0.36155 -0.165709,0.24103 -0.316354,0.24103 l -0.60258,-0.2109 q -0.632708,-0.2335 -1.001788,-0.2335 -0.595047,0 -0.956595,0.34648 -0.361548,0.34649 -0.549854,1.22776 -0.188306,0.88127 -0.218435,2.44798 h 2.04877 v 0.48206 l -2.04877,0.0151 -0.03013,2.14668 q 0,1.29555 0.0226,1.90566 0.0226,0.61011 0.128048,0.71557 0.06779,0.0527 0.225967,0.0678 0.158177,0.0151 0.918934,0.0377 v 0.29375 q -0.444402,-0.0151 -1.513981,-0.0226 -1.062046,-0.008 -1.77761,-0.008 v -0.24857 q 0.399209,-0.0226 0.595048,-0.0979 0.20337,-0.0829 0.293757,-0.27869 0.09792,-0.20337 0.120516,-0.57245 0.03013,-0.37661 0.03013,-1.05452 l 0.01506,-2.51576 q 0,-0.27117 -0.06026,-0.30883 -0.143113,-0.0904 -0.941531,-0.0904 z"
         style="font-style:normal;font-variant:normal;font-weight:normal;font-stretch:normal;font-family:Centaur;-inkscape-font-specification:Centaur;fill:#03575a;fill-opacity:0.98888885;stroke-width:0.96412724"
         id="path1019" />
      <path
         d="m 76.838041,278.38553 v -0.45194 l 1.001788,-0.0151 q 0.0075,-1.31061 0.225968,-2.0789 0.218435,-0.76829 0.632708,-1.25035 0.331419,-0.38415 0.828547,-0.7005 0.497128,-0.32389 0.986724,-0.49713 0.489596,-0.17324 0.813482,-0.17324 0.436871,0 0.866208,0.15817 0.429338,0.15065 0.429338,0.36155 0,0.12052 -0.165709,0.36155 -0.165709,0.24103 -0.316354,0.24103 l -0.60258,-0.2109 q -0.632708,-0.2335 -1.001788,-0.2335 -0.595047,0 -0.956595,0.34648 -0.361548,0.34649 -0.549854,1.22776 -0.188306,0.88127 -0.218435,2.44798 h 2.04877 v 0.48206 l -2.04877,0.0151 -0.03013,2.14668 q 0,1.29555 0.0226,1.90566 0.0226,0.61011 0.128048,0.71557 0.06779,0.0527 0.225967,0.0678 0.158177,0.0151 0.918934,0.0377 v 0.29375 q -0.444402,-0.0151 -1.513981,-0.0226 -1.062047,-0.008 -1.77761,-0.008 v -0.24857 q 0.399209,-0.0226 0.595048,-0.0979 0.20337,-0.0829 0.293757,-0.27869 0.09792,-0.20337 0.120516,-0.57245 0.03013,-0.37661 0.03013,-1.05452 l 0.01506,-2.51576 q 0,-0.27117 -0.06026,-0.30883 -0.143112,-0.0904 -0.94153,-0.0904 z"
         style="font-style:normal;font-variant:normal;font-weight:normal;font-stretch:normal;font-family:Centaur;-inkscape-font-specification:Centaur;fill:#03575a;fill-opacity:0.98888885;stroke-width:0.96412724"
         id="path1021" />
      <path
         d="m 81.210509,283.6129 0.01506,-0.2335 q 0.451935,-0.10545 0.655305,-0.26362 0.203371,-0.15818 0.293758,-0.67037 0.09792,-0.5122 0.09792,-1.55918 0,-1.01685 -0.105451,-1.44619 -0.09792,-0.42934 -0.30129,-0.53479 -0.195838,-0.10545 -0.655305,-0.12051 v -0.24857 q 0.80595,-0.1883 1.649561,-0.69297 0.09039,-0.0602 0.150645,-0.0602 0.150645,0 0.180774,0.39167 0.03766,0.39168 0.0075,0.68544 0.158177,-0.0904 0.557386,-0.30129 0.406741,-0.21844 0.632709,-0.32389 0.233499,-0.11298 0.595047,-0.22597 0.361548,-0.12051 0.632708,-0.12051 0.391677,0 0.768289,0.22597 0.384145,0.21843 0.527257,0.73062 1.393466,-0.73816 2.410318,-0.73816 0.723096,0 1.054515,0.32389 0.331418,0.32389 0.399209,0.83608 0.07532,0.50466 0.07532,1.46125 v 1.34074 q -0.0226,0.57999 -0.01506,0.79842 0.0075,0.2109 0.06779,0.27869 0.06779,0.0603 0.241032,0.0829 0.06026,0.008 0.414273,0.0828 0.361548,0.0753 0.414273,0.0829 l -0.105451,0.20337 h -2.854721 l -0.04519,-0.20337 q 0.466999,-0.12052 0.640241,-0.26363 0.173241,-0.14311 0.241032,-0.61011 0.07532,-0.467 0.07532,-1.6345 0,-0.69296 -0.120516,-1.17503 -0.112984,-0.48206 -0.414273,-0.73816 -0.30129,-0.26363 -0.836079,-0.26363 -0.677902,0 -1.574239,0.41428 0.03766,0.31635 0.05272,1.09217 0.01507,0.76829 0.03013,1.58931 0.01506,0.81348 0.0226,1.05451 0.01506,0.20337 0.06779,0.28622 0.05273,0.0753 0.195839,0.11299 0.150644,0.0377 0.632708,0.10545 v 0.2335 h -0.94153 q -0.128049,0 -0.949063,0.0301 -0.821015,0.0301 -0.979192,0.0301 l -0.04519,-0.2335 q 0.497128,-0.0979 0.715563,-0.2561 0.218435,-0.16571 0.286225,-0.57245 0.07532,-0.41427 0.06026,-1.401 L 86.114,280.46443 q -0.01507,-0.92647 -0.286226,-1.40853 -0.263628,-0.4896 -0.87374,-0.4896 -0.293758,0 -0.617644,0.10545 -0.323887,0.10545 -0.617644,0.2561 -0.293758,0.14311 -0.50466,0.25609 -0.0075,0.12805 -0.01506,0.65531 -0.0075,0.51972 -0.01506,0.85868 v 0.76828 q 0.01506,1.34828 0.04519,1.46879 0.03013,0.13558 0.218435,0.24857 0.188306,0.10545 0.813482,0.19583 v 0.26363 q -0.09039,0 -0.647773,-0.0301 -0.557386,-0.0301 -0.662837,-0.0301 z"
         style="font-style:normal;font-variant:normal;font-weight:normal;font-stretch:normal;font-family:Centaur;-inkscape-font-specification:Centaur;fill:#03575a;fill-opacity:0.98888885;stroke-width:0.96412724"
         id="path1023" />
      <path
         d="m 93.781827,279.15382 -0.926466,0.41427 q -0.06026,-0.24103 -0.06026,-0.35402 0,-0.38414 0.466999,-0.70803 0.474531,-0.33142 1.062046,-0.53479 0.595047,-0.20337 0.828547,-0.20337 0.203371,0 0.50466,0.18078 0.30129,0.18077 0.482064,0.36154 0.158177,0.15065 0.241032,0.30129 0.09039,0.14312 0.158177,0.45947 0.06779,0.31635 0.06779,0.80595 0,0.14311 -0.03766,1.00932 l -0.03013,0.56492 q -0.03013,0.40674 -0.03013,0.64777 0,0.30882 0.08285,0.66284 0.07532,0.36155 0.338951,0.36155 0.293757,0 0.783353,-0.21844 v 0.30882 l -1.10724,0.44441 q -0.331419,0.11298 -0.376612,0.11298 -0.173242,0 -0.346483,-0.22597 -0.16571,-0.2335 -0.271161,-0.54985 -1.393465,0.77582 -2.139157,0.77582 -0.459467,0 -0.692967,-0.26363 -0.233499,-0.27116 -0.233499,-0.80595 0,-0.51219 0.120515,-0.76075 0.128049,-0.24857 0.406742,-0.39168 0.564918,-0.28623 1.197626,-0.42181 0.632709,-0.14311 1.325675,-0.24103 l 0.03766,-0.92646 v -0.24857 q 0,-0.64024 -0.36908,-1.00932 -0.361548,-0.37661 -0.851144,-0.37661 -0.233499,0 -0.474531,0.13558 -0.2335,0.12805 -0.2335,0.36908 0,0.12051 0.07532,0.32389 z m 1.785141,3.56275 q -0.0226,-0.24857 0.04519,-1.41607 -0.994256,-0.0678 -1.596836,0.24104 -0.602579,0.30882 -0.602579,0.77582 0,0.33895 0.180773,0.64024 0.188307,0.30129 0.512193,0.30129 0.361548,0 1.461255,-0.54232 z"
         style="font-style:normal;font-variant:normal;font-weight:normal;font-stretch:normal;font-family:Centaur;-inkscape-font-specification:Centaur;fill:#03575a;fill-opacity:0.98888885;stroke-width:0.96412724"
         id="path1025" />
      <path
         d="m 97.992347,283.49239 -0.01506,-0.21844 q 0.406741,-0.0753 0.595047,-0.15817 0.188306,-0.0829 0.248564,-0.18831 0.06026,-0.10545 0.08286,-0.28623 0.06026,-0.41427 0.08285,-1.01685 0.0226,-0.60258 0.0226,-1.22022 0,-0.85868 -0.06026,-1.1675 -0.05273,-0.31635 -0.241032,-0.39921 -0.180774,-0.0904 -0.685434,-0.14311 0,-0.0979 -0.01506,-0.14311 0.323886,-0.0829 0.858675,-0.31636 0.542322,-0.24103 0.572451,-0.27116 0.286225,-0.15064 0.338951,-0.15064 0.112984,0 0.143113,0.21843 0.03013,0.21844 0.03013,0.7231 0.828549,-0.467 1.363339,-0.66284 0.53479,-0.20337 1.02438,-0.20337 0.73063,0 1.06205,0.32388 0.33895,0.31636 0.41427,0.77583 0.0829,0.45193 0.0829,1.19762 v 1.79268 q 0,1.06204 0.0979,1.15996 0.0527,0.0527 0.38414,0.12805 0.33142,0.0753 0.38414,0.0979 l 0.0151,0.2335 q -0.56492,-0.0904 -1.31061,-0.0904 -0.63271,0 -1.51398,0.0904 v -0.21844 q 0.68543,-0.13558 0.85114,-0.42933 0.11298,-0.24857 0.15065,-1.04699 0.0452,-0.80595 0.0452,-1.25035 0,-0.66284 -0.0603,-1.08464 -0.0527,-0.42934 -0.30882,-0.73063 -0.2561,-0.30129 -0.79842,-0.30129 -0.24103,0 -0.73063,0.0979 -0.48959,0.0979 -1.152429,0.4444 l -0.04519,2.00358 q -0.01506,1.28048 0.03013,1.69475 0.01507,0.18078 0.06779,0.27117 0.0602,0.0904 0.25609,0.1657 0.19584,0.0678 0.66284,0.12052 l -0.0151,0.2335 q -0.16571,-0.0151 -0.47454,-0.0377 -0.30882,-0.0226 -0.790881,-0.0377 z"
         style="font-style:normal;font-variant:normal;font-weight:normal;font-stretch:normal;font-family:Centaur;-inkscape-font-specification:Centaur;fill:#03575a;fill-opacity:0.98888885;stroke-width:0.96412724"
         id="path1027" />
    </g>
  </g>
</svg>
